<svg xmlns="http://www.w3.org/2000/svg" width="38.57" height="38.574" viewBox="0 0 38.57 38.574">
  <path id="package-box" d="M41.2,12.38,22.582,3.07a.665.665,0,0,0-.595,0L3.368,12.38a.665.665,0,0,0-.368.6V31.6a.665.665,0,0,0,.368.6l18.62,9.31a.665.665,0,0,0,.595,0l18.62-9.31a.665.665,0,0,0,.368-.6V12.975A.665.665,0,0,0,41.2,12.38ZM22.285,21.542l-5.2-2.6L33.7,10.115l5.719,2.86Zm-10.518-5.26L28.383,7.455,32.24,9.384,15.626,18.212Zm-.787,1.094,3.99,2v5.3l-1.525-1.525a.665.665,0,0,0-.47-.195h-2ZM22.285,4.408l4.636,2.316L10.306,15.552,5.152,12.975ZM4.33,14.051l5.32,2.66v6.9a.665.665,0,0,0,.665.665H12.7l2.465,2.465a.665.665,0,0,0,1.135-.47V20.036l5.32,2.66V39.829L4.33,31.184ZM22.95,39.829V22.7l17.29-8.645V31.184Z" transform="translate(-3 -3)" fill="#2c2f45"/>
</svg>
