<svg xmlns="http://www.w3.org/2000/svg" width="25.871" height="28.642" viewBox="0 0 25.871 28.642">
  <path id="icons8-charger" d="M33.386,8a.462.462,0,0,0-.462.462V10.31h-.462a.462.462,0,0,0-.462.462v5.544a.462.462,0,0,0,.462.462h.924V17.7a.462.462,0,0,0,.462.462h.462V33.871a2.775,2.775,0,0,0,2.772,2.772h1.386a2.775,2.775,0,0,0,2.772-2.772V12.62a1.85,1.85,0,0,1,1.848-1.848h5.082a1.85,1.85,0,0,1,1.848,1.848v3.7h-2.31a.462.462,0,0,0-.462.462v1.386H44.7a1.619,1.619,0,0,0-1.617,1.617V35.025A1.619,1.619,0,0,0,44.7,36.642H56.254a1.619,1.619,0,0,0,1.617-1.617V19.78a1.619,1.619,0,0,0-1.617-1.617H53.713V16.777a.462.462,0,0,0-.462-.462h-2.31v-3.7a2.775,2.775,0,0,0-2.772-2.772H43.087a2.775,2.775,0,0,0-2.772,2.772V33.871a1.85,1.85,0,0,1-1.848,1.848H37.082a1.85,1.85,0,0,1-1.848-1.848V18.163H35.7a.462.462,0,0,0,.462-.462v-.924h.924a.462.462,0,0,0,.462-.462V10.772a.462.462,0,0,0-.462-.462H36.62V8.462A.462.462,0,0,0,36.158,8Zm.462.924H35.7V10.31H33.848Zm-.924,2.31h3.7v4.62h-3.7Zm1.386,5.544h.924v.462H34.31Zm13.859.462h4.62v.924h-4.62ZM44.7,19.087H56.254a.694.694,0,0,1,.693.693V35.025a.694.694,0,0,1-.693.693H44.7a.694.694,0,0,1-.693-.693V19.78A.694.694,0,0,1,44.7,19.087Zm6.708,5.082a.462.462,0,0,0-.385.193L48.717,27.6a.462.462,0,0,0,.376.73h1.562L49.6,30.43a.462.462,0,1,0,.826.413l1.386-2.772A.462.462,0,0,0,51.4,27.4H49.991l1.788-2.5a.462.462,0,0,0-.367-.73Z" transform="translate(-32 -8)" fill="#878787"/>
</svg>
