<svg xmlns="http://www.w3.org/2000/svg" width="37.935" height="42" viewBox="0 0 37.935 42">
  <path id="icons8-charger" d="M34.032,8a.677.677,0,0,0-.677.677v2.71h-.677a.677.677,0,0,0-.677.677v8.129a.677.677,0,0,0,.677.677h1.355v1.355a.677.677,0,0,0,.677.677h.677V45.935A4.069,4.069,0,0,0,39.452,50h2.032a4.069,4.069,0,0,0,4.065-4.065V14.774a2.713,2.713,0,0,1,2.71-2.71H55.71a2.713,2.713,0,0,1,2.71,2.71v5.419H55.032a.677.677,0,0,0-.677.677V22.9H50.629a2.374,2.374,0,0,0-2.371,2.371V47.629A2.374,2.374,0,0,0,50.629,50H67.565a2.374,2.374,0,0,0,2.371-2.371V25.274A2.374,2.374,0,0,0,67.565,22.9H63.839V20.871a.677.677,0,0,0-.677-.677H59.774V14.774A4.069,4.069,0,0,0,55.71,10.71H48.258a4.069,4.069,0,0,0-4.065,4.065V45.935a2.713,2.713,0,0,1-2.71,2.71H39.452a2.713,2.713,0,0,1-2.71-2.71V22.9h.677a.677.677,0,0,0,.677-.677V20.871h1.355a.677.677,0,0,0,.677-.677V12.065a.677.677,0,0,0-.677-.677h-.677V8.677A.677.677,0,0,0,38.1,8Zm.677,1.355h2.71v2.032H34.71Zm-1.355,3.387h5.419v6.774H33.355Zm2.032,8.129h1.355v.677H35.387Zm20.323.677h6.774V22.9H55.71Zm-5.081,2.71H67.565a1.017,1.017,0,0,1,1.016,1.016V47.629a1.017,1.017,0,0,1-1.016,1.016H50.629a1.017,1.017,0,0,1-1.016-1.016V25.274a1.017,1.017,0,0,1,1.016-1.016Zm9.836,7.452a.677.677,0,0,0-.565.284l-3.387,4.742a.677.677,0,0,0,.551,1.071h2.291l-1.542,3.084a.677.677,0,1,0,1.212.606l2.032-4.065a.677.677,0,0,0-.606-.98H58.381L61,32.781a.677.677,0,0,0-.538-1.071Z" transform="translate(-32 -8)" fill="#2c2f45"/>
</svg>
