<svg xmlns="http://www.w3.org/2000/svg" width="44.465" height="36.753" viewBox="0 0 44.465 36.753">
  <path id="earphones" d="M42.5,64.774v-.1A20.248,20.248,0,0,0,7.915,50.354,20.127,20.127,0,0,0,1.961,64.671v.1A2.4,2.4,0,0,0,0,67.126v7.9a2.394,2.394,0,0,0,2.392,2.392H3.87v.342a3.394,3.394,0,0,0,3.39,3.389H8.572a2.079,2.079,0,0,0,2.077-2.077v-16A2.079,2.079,0,0,0,8.572,61H7.259a3.393,3.393,0,0,0-3.39,3.39v.342H3.351v-.063a18.882,18.882,0,0,1,37.764,0v.063H40.6v-.342A3.393,3.393,0,0,0,37.206,61H35.894a2.079,2.079,0,0,0-2.077,2.077v16a2.079,2.079,0,0,0,2.077,2.076h1.313a3.394,3.394,0,0,0,3.39-3.39v-.342h1.478a2.394,2.394,0,0,0,2.391-2.391v-7.9A2.4,2.4,0,0,0,42.5,64.774ZM5.259,64.393a2,2,0,0,1,2-2H8.572a.688.688,0,0,1,.687.687v16a.688.688,0,0,1-.687.687H7.259a2,2,0,0,1-2-2ZM3.87,76.033H2.392a1,1,0,0,1-1-1v-7.9a1,1,0,0,1,1-1H3.87Zm35.337,1.731a2,2,0,0,1-2,2H35.894a.688.688,0,0,1-.687-.687v-16a.688.688,0,0,1,.687-.687h1.313a2,2,0,0,1,2,2Zm3.87-2.733a1,1,0,0,1-1,1H40.6V66.124h1.478a1,1,0,0,1,1,1Z" transform="translate(0 -44.4)" fill="#2c2f45"/>
</svg>
