<svg xmlns="http://www.w3.org/2000/svg" width="14.568" height="13.501" viewBox="0 0 14.568 13.501">
  <g id="edit-image" transform="translate(-10.25 -11.25)">
    <path id="Path_86" data-name="Path 86" d="M11.706,23.692h3.733a.4.4,0,1,0,0-.794H11.706a.662.662,0,0,1-.662-.662V20.383l2.3-2.3L15.4,20.134a.4.4,0,0,0,.562,0l3.812-3.812.773.773a.4.4,0,0,0,.562-.561L20.05,15.48a.4.4,0,0,0-.562,0l-3.812,3.812-2.049-2.049a.4.4,0,0,0-.561,0l-2.022,2.018V12.706a.662.662,0,0,1,.662-.662h9.53a.662.662,0,0,1,.662.662v2.907a.4.4,0,1,0,.794,0V12.706a1.457,1.457,0,0,0-1.456-1.456h-9.53a1.457,1.457,0,0,0-1.456,1.456v9.53A1.457,1.457,0,0,0,11.706,23.692Z" fill="#2c2f45"/>
    <path id="Path_87" data-name="Path 87" d="M27.935,21.76l-5.531,5.5a.4.4,0,0,0-.117.272L22.25,29.07a.4.4,0,0,0,.407.407l1.543-.037a.4.4,0,0,0,.27-.116L30,23.821a1.46,1.46,0,1,0-2.065-2.061Zm1.719.977a.743.743,0,0,1-.214.52l-5.419,5.392-.968.024.023-.959L28.5,22.323a.738.738,0,0,1,.532-.222.637.637,0,0,1,.627.636Z" transform="translate(-5.647 -4.726)" fill="#2c2f45"/>
    <path id="Path_88" data-name="Path 88" d="M16.25,16.706a1.456,1.456,0,1,0,1.456-1.456A1.456,1.456,0,0,0,16.25,16.706Zm2.118,0a.662.662,0,1,1-.662-.662A.662.662,0,0,1,18.368,16.706Z" transform="translate(-2.823 -1.882)" fill="#2c2f45"/>
  </g>
</svg>
