<svg xmlns="http://www.w3.org/2000/svg" width="15.62" height="15.619" viewBox="0 0 15.62 15.619">
  <g id="_9-Home" data-name="9-Home" transform="translate(-1.996 -1.994)">
    <path id="Path_66" data-name="Path 66" d="M13.051,17.612H6.56a2.788,2.788,0,0,1-2.889-2.654v-3.48a.558.558,0,0,1,1.115,0v3.48A1.673,1.673,0,0,0,6.56,16.5h6.491a1.673,1.673,0,0,0,1.773-1.539v-3.48a.558.558,0,0,1,1.115,0v3.48a2.788,2.788,0,0,1-2.889,2.654Zm4.4-7.411a.558.558,0,0,0,0-.792L10.2,2.159a.558.558,0,0,0-.792,0L2.16,9.409a.56.56,0,0,0,.792.792L9.805,3.341,16.659,10.2a.558.558,0,0,0,.792,0Z" fill="#fff"/>
  </g>
</svg>
