<svg xmlns="http://www.w3.org/2000/svg" width="28.5" height="37.999" viewBox="0 0 28.5 37.999">
  <g id="invoice" transform="translate(-64)" opacity="0.5">
    <g id="Group_299" data-name="Group 299" transform="translate(64)">
      <g id="Group_298" data-name="Group 298" transform="translate(0)">
        <path id="Path_128" data-name="Path 128" d="M92.268,8.149,84.351.232A.791.791,0,0,0,83.791,0H67.167A3.17,3.17,0,0,0,64,3.167V34.833A3.17,3.17,0,0,0,67.167,38H89.333A3.17,3.17,0,0,0,92.5,34.833V8.708A.791.791,0,0,0,92.268,8.149ZM84.583,2.7,89.8,7.917h-3.63a1.585,1.585,0,0,1-1.583-1.583Zm6.333,32.13a1.585,1.585,0,0,1-1.583,1.583H67.167a1.585,1.585,0,0,1-1.583-1.583V3.167a1.585,1.585,0,0,1,1.583-1.583H83v4.75A3.17,3.17,0,0,0,86.166,9.5h4.75Z" transform="translate(-64)" fill="#2c2f45"/>
        <path id="Path_129" data-name="Path 129" d="M146.208,298.667H128.792a.792.792,0,1,0,0,1.583h17.416a.792.792,0,1,0,0-1.583Z" transform="translate(-123.25 -276.501)" fill="#2c2f45"/>
        <path id="Path_130" data-name="Path 130" d="M146.208,234.667H128.792a.792.792,0,1,0,0,1.583h17.416a.792.792,0,1,0,0-1.583Z" transform="translate(-123.25 -217.251)" fill="#2c2f45"/>
        <path id="Path_131" data-name="Path 131" d="M146.208,362.667H128.792a.792.792,0,1,0,0,1.583h17.416a.792.792,0,1,0,0-1.583Z" transform="translate(-123.25 -335.751)" fill="#2c2f45"/>
        <path id="Path_132" data-name="Path 132" d="M138.292,426.667h-9.5a.792.792,0,0,0,0,1.583h9.5a.792.792,0,0,0,0-1.583Z" transform="translate(-123.25 -395.001)" fill="#2c2f45"/>
        <path id="Path_133" data-name="Path 133" d="M234.667,171.458a.791.791,0,0,0,.792.792h9.5a.792.792,0,1,0,0-1.583h-9.5A.791.791,0,0,0,234.667,171.458Z" transform="translate(-222.001 -158)" fill="#2c2f45"/>
        <path id="Path_134" data-name="Path 134" d="M130.375,81.79h-1.583a.792.792,0,0,0,0,1.583h.792a.792.792,0,1,0,1.583,0v-.146a2.369,2.369,0,0,0-.792-4.6.792.792,0,1,1,0-1.583h1.583a.792.792,0,1,0,0-1.583h-.792a.792.792,0,1,0-1.583,0V75.6a2.369,2.369,0,0,0,.792,4.6.792.792,0,0,1,0,1.583Z" transform="translate(-123.25 -69.124)" fill="#2c2f45"/>
      </g>
    </g>
  </g>
</svg>
