<svg xmlns="http://www.w3.org/2000/svg" width="43.676" height="48.2" viewBox="0 0 43.676 48.2">
  <g id="like-new" transform="translate(0 -1.15)">
    <path id="Path_11" data-name="Path 11" d="M30.921,1.5h15.69a2.715,2.715,0,0,1,2.7,2.7V46.3a2.715,2.715,0,0,1-2.7,2.7H23.6a2.694,2.694,0,0,1-2.7-2.7h0V4.2a2.715,2.715,0,0,1,2.7-2.7Z" transform="translate(-14.011)" fill="none" stroke="#6b6b6b" stroke-linecap="round" stroke-linejoin="round" stroke-width="0.7"/>
    <line id="Line_23" data-name="Line 23" x2="28.381" transform="translate(6.889 7.829)" fill="none" stroke="#6b6b6b" stroke-linecap="round" stroke-linejoin="round" stroke-width="0.7"/>
    <line id="Line_24" data-name="Line 24" x2="4.977" transform="translate(17.207 4.664)" fill="none" stroke="#6b6b6b" stroke-linecap="round" stroke-linejoin="round" stroke-width="0.7"/>
    <line id="Line_25" data-name="Line 25" x2="0.198" transform="translate(24.624 4.664)" fill="none" stroke="#6b6b6b" stroke-linecap="round" stroke-linejoin="round" stroke-width="0.7"/>
    <line id="Line_26" data-name="Line 26" x2="28.381" transform="translate(6.889 42.506)" fill="none" stroke="#6b6b6b" stroke-linecap="round" stroke-linejoin="round" stroke-width="0.7"/>
    <line id="Line_27" data-name="Line 27" x2="4.582" transform="translate(18.756 45.803)" fill="none" stroke="#6b6b6b" stroke-linecap="round" stroke-linejoin="round" stroke-width="0.7"/>
    <path id="Path_12" data-name="Path 12" d="M38.9,61.206a5.76,5.76,0,0,0,.165,2.373A2.285,2.285,0,0,0,40.948,65a4.729,4.729,0,0,0,1.912-.4l1.912-.725a1.746,1.746,0,0,1,1.351.066l1.187.429,1.615.593a2.372,2.372,0,0,0,2.209-.593,2.321,2.321,0,0,0,.692-2.011l-.066-3.3,2.077-2.7A2.318,2.318,0,0,0,52.584,52.6L49.32,51.548l-2.011-2.8a2.232,2.232,0,0,0-1.945-1.055,2.3,2.3,0,0,0-2.011,1.154,27.322,27.322,0,0,1-1.813,2.538c-.692.758-2.242.791-3.23,1.154A2.791,2.791,0,0,0,36.3,54.811a2.923,2.923,0,0,0,.791,1.879,15.639,15.639,0,0,1,1.319,1.615" transform="translate(-24.334 -30.962)" fill="none" stroke="#6b6b6b" stroke-linecap="round" stroke-linejoin="round" stroke-width="0.7"/>
    <line id="Line_28" data-name="Line 28" y1="1.615" x2="1.384" transform="translate(26.502 16.861)" fill="none" stroke="#6b6b6b" stroke-linecap="round" stroke-linejoin="round" stroke-width="0.7"/>
    <line id="Line_29" data-name="Line 29" x2="1.648" y2="1.384" transform="translate(13.68 16.828)" fill="none" stroke="#6b6b6b" stroke-linecap="round" stroke-linejoin="round" stroke-width="0.7"/>
    <line id="Line_30" data-name="Line 30" y1="0.725" x2="2.011" transform="translate(10.186 29.09)" fill="none" stroke="#6b6b6b" stroke-linecap="round" stroke-linejoin="round" stroke-width="0.7"/>
    <line id="Line_31" data-name="Line 31" x2="1.945" y2="0.923" transform="translate(30.062 29.057)" fill="none" stroke="#6b6b6b" stroke-linecap="round" stroke-linejoin="round" stroke-width="0.7"/>
    <line id="Line_32" data-name="Line 32" y2="2.143" transform="translate(20.998 34.793)" fill="none" stroke="#6b6b6b" stroke-linecap="round" stroke-linejoin="round" stroke-width="0.7"/>
    <path id="Path_13" data-name="Path 13" d="M3.692,104.109s-1.45.165-1.846,2.209C1.45,104.273,0,104.109,0,104.109A2.6,2.6,0,0,0,1.846,101.9,2.633,2.633,0,0,0,3.692,104.109Z" transform="translate(0 -67.305)" fill="#707070"/>
    <path id="Path_14" data-name="Path 14" d="M116.392,20.409s-1.45.165-1.846,2.209a2.466,2.466,0,0,0-1.846-2.209,2.6,2.6,0,0,0,1.846-2.209A2.6,2.6,0,0,0,116.392,20.409Z" transform="translate(-75.55 -11.195)" fill="#707070"/>
    <path id="Path_15" data-name="Path 15" d="M124.992,37.409s-1.45.165-1.846,2.209a2.466,2.466,0,0,0-1.846-2.209,2.6,2.6,0,0,0,1.846-2.209A2.633,2.633,0,0,0,124.992,37.409Z" transform="translate(-81.316 -22.591)" fill="#707070"/>
  </g>
</svg>
