<svg id="to-do-list" xmlns="http://www.w3.org/2000/svg" width="16.323" height="18.248" viewBox="0 0 16.323 18.248">
  <path id="Path_67" data-name="Path 67" d="M14.256,0H2.067A2.07,2.07,0,0,0,0,2.067V15.254a1.07,1.07,0,0,0,1.069,1.069H5.75a.356.356,0,0,0,0-.713H1.069a.357.357,0,0,1-.356-.356V2.067A1.356,1.356,0,0,1,2.067.713H12.7a2.058,2.058,0,0,0-.507,1.354V13.553a.6.6,0,0,1-1.162.189L10.49,12.13a1.112,1.112,0,0,0-2.168.352v.278H6.475a.356.356,0,0,0,0,.713H8.322v1.773a3.944,3.944,0,0,0,.305,1.525l.524,1.258a.356.356,0,1,0,.658-.274L9.285,16.5a3.236,3.236,0,0,1-.25-1.251V12.482a.4.4,0,0,1,.779-.126l.537,1.612a1.309,1.309,0,0,0,2.551-.414V7.442l.476.475A4.459,4.459,0,0,1,14.7,11.095v3.789a6.707,6.707,0,0,1-.643,2.855.356.356,0,1,0,.644.305,7.424,7.424,0,0,0,.712-3.161V11.095a5.167,5.167,0,0,0-1.527-3.682l-.98-.978V6.095h2.352a1.07,1.07,0,0,0,1.069-1.069V2.067A2.069,2.069,0,0,0,14.256,0Zm1.354,5.025a.357.357,0,0,1-.356.356H12.9V2.067a1.354,1.354,0,1,1,2.709,0Zm0,0" fill="#fff"/>
  <path id="Path_68" data-name="Path 68" d="M195.356,438a.357.357,0,1,0,.252.1A.359.359,0,0,0,195.356,438Zm0,0" transform="translate(-188.05 -422.385)" fill="#fff"/>
  <path id="Path_69" data-name="Path 69" d="M56.662,54.713A.714.714,0,0,0,55.949,54H54.381a.714.714,0,0,0-.713.713v1.568a.714.714,0,0,0,.713.713h1.568a.714.714,0,0,0,.713-.713Zm-.713,1.568H54.381V54.713h1.568v1.568Zm0,0" transform="translate(-51.755 -52.075)" fill="#fff"/>
  <path id="Path_70" data-name="Path 70" d="M56.662,174.713a.714.714,0,0,0-.713-.713H54.381a.714.714,0,0,0-.713.713v1.568a.714.714,0,0,0,.713.713h1.568a.714.714,0,0,0,.713-.713Zm-.713,1.568H54.381v-1.568h1.568v1.568Zm0,0" transform="translate(-51.755 -167.799)" fill="#fff"/>
  <path id="Path_71" data-name="Path 71" d="M55.949,294H54.381a.713.713,0,0,0-.713.713v1.568a.713.713,0,0,0,.713.713h1.568a.714.714,0,0,0,.713-.713v-1.568A.714.714,0,0,0,55.949,294Zm0,2.281H54.381v-1.568h1.568v1.568Zm0,0" transform="translate(-51.755 -283.522)" fill="#fff"/>
  <path id="Path_72" data-name="Path 72" d="M220.208,118.713a.356.356,0,0,0,0-.713h-2.457a.356.356,0,0,0,0,.713Zm0,0" transform="translate(-209.646 -113.794)" fill="#fff"/>
  <path id="Path_73" data-name="Path 73" d="M172.024,118.713a.357.357,0,1,0-.252-.1A.359.359,0,0,0,172.024,118.713Zm0,0" transform="translate(-165.55 -113.794)" fill="#fff"/>
  <path id="Path_74" data-name="Path 74" d="M172.02,238.713h4.087a.356.356,0,1,0,0-.713H172.02a.356.356,0,1,0,0,.713Zm0,0" transform="translate(-165.546 -229.518)" fill="#fff"/>
</svg>
