<svg xmlns="http://www.w3.org/2000/svg" width="32.828" height="20.791" viewBox="0 0 32.828 20.791">
  <g id="memory" transform="translate(0 -88)">
    <g id="Group_245" data-name="Group 245" transform="translate(0 88)">
      <g id="Group_244" data-name="Group 244" transform="translate(0 0)">
        <path id="Path_104" data-name="Path 104" d="M152,145.848h5.471V136H152Zm1.094-8.754h3.283v7.66h-3.283Z" transform="translate(-141.605 -132.717)" fill="#878787"/>
        <path id="Path_105" data-name="Path 105" d="M248,145.848h5.471V136H248Zm1.094-8.754h3.283v7.66h-3.283Z" transform="translate(-231.039 -132.717)" fill="#878787"/>
        <path id="Path_106" data-name="Path 106" d="M56,145.848h5.471V136H56Zm1.094-8.754h3.283v7.66H57.094Z" transform="translate(-52.17 -132.717)" fill="#878787"/>
        <path id="Path_107" data-name="Path 107" d="M344,145.848h5.471V136H344Zm1.094-8.754h3.283v7.66h-3.283Z" transform="translate(-320.473 -132.717)" fill="#878787"/>
        <path id="Path_108" data-name="Path 108" d="M32.281,94.566a.547.547,0,0,0,.547-.547V89.641A1.641,1.641,0,0,0,31.186,88H1.641A1.641,1.641,0,0,0,0,89.641v4.377a.547.547,0,0,0,.547.547.547.547,0,1,1,0,1.094A.547.547,0,0,0,0,96.207v7.66a.547.547,0,0,0,.547.547H2.736v3.83a.547.547,0,0,0,.547.547h8.754a.547.547,0,0,0,.547-.547V107.15a.547.547,0,0,1,.547-.547.534.534,0,0,1,.39.167.528.528,0,0,1,.157.38v1.094a.547.547,0,0,0,.547.547h15.32a.547.547,0,0,0,.547-.547v-3.83h2.189a.547.547,0,0,0,.547-.547v-7.66a.547.547,0,0,0-.547-.547.547.547,0,1,1,0-1.094ZM29,107.7H27.9v-2.189H26.809V107.7H25.715v-2.189H24.621V107.7H23.527v-2.189H22.432V107.7H21.338v-2.189H20.244V107.7H19.15v-2.189H18.055V107.7H16.961v-2.189H15.867V107.7H14.773v-.547a1.641,1.641,0,1,0-3.283,0v.547H10.4v-2.189H9.3V107.7H8.207v-2.189H7.113V107.7H6.018v-2.189H4.924V107.7H3.83v-3.283H29Zm2.736-14.132a1.641,1.641,0,0,0,0,3.1v6.659H1.094V96.661a1.641,1.641,0,0,0,0-3.1V89.641a.547.547,0,0,1,.547-.547H31.186a.547.547,0,0,1,.547.547Z" transform="translate(0 -88)" fill="#878787"/>
      </g>
    </g>
  </g>
</svg>
