<svg xmlns="http://www.w3.org/2000/svg" width="12.687" height="16.033" viewBox="0 0 12.687 16.033">
  <g id="Group_152" data-name="Group 152" transform="translate(-345.313 -14)">
    <path id="bell" d="M65.859,12.76a2.491,2.491,0,0,1-.757-1.031,11.928,11.928,0,0,1-.789-4.713c0-.006,0-.012,0-.018a4.549,4.549,0,0,0-2.678-4.126V1.786A1.787,1.787,0,0,0,59.851,0H59.7a1.787,1.787,0,0,0-1.783,1.786V2.871a4.549,4.549,0,0,0-2.678,4.144,11.928,11.928,0,0,1-.789,4.713A2.491,2.491,0,0,1,53.7,12.76a.457.457,0,0,0-.251.519.478.478,0,0,0,.471.367h3.443a2.418,2.418,0,0,0,4.837,0h3.443a.478.478,0,0,0,.471-.367A.457.457,0,0,0,65.859,12.76Zm-7-10.973A.845.845,0,0,1,59.7.941h.148a.845.845,0,0,1,.844.845v.78a4.549,4.549,0,0,0-1.835,0v-.78Zm.918,13.306A1.482,1.482,0,0,1,58.3,13.646h2.958A1.482,1.482,0,0,1,59.778,15.092Zm1.891-2.387H54.987a4.927,4.927,0,0,0,.246-.432,11.893,11.893,0,0,0,.949-5.258,3.6,3.6,0,1,1,7.191,0c0,.006,0,.012,0,.017a11.869,11.869,0,0,0,.949,5.239,4.926,4.926,0,0,0,.246.432Z" transform="translate(291.879 14)" fill="#fff"/>
    <g id="Ellipse_1" data-name="Ellipse 1" transform="translate(345.5 16.85)" fill="#f9c414" stroke="#fff" stroke-width="0.8">
      <circle cx="3" cy="3" r="3" stroke="none"/>
      <circle cx="3" cy="3" r="2.6" fill="none"/>
    </g>
  </g>
</svg>
