<svg xmlns="http://www.w3.org/2000/svg" width="22.576" height="24.628" viewBox="0 0 22.576 24.628">
  <g id="quality" transform="translate(-2 0)">
    <path id="Path_122" data-name="Path 122" d="M13.288,24.628a.516.516,0,0,1-.147-.022,14.867,14.867,0,0,1-7.08-4.336C.815,14.45,2.038,6.513,2.336,4.981a.513.513,0,0,1,.32-.381c1.585-.607,3.154-1.245,4.663-1.9C9.26,1.868,11.18.981,13.026.068a.528.528,0,0,1,.5-.01c1.853.917,3.78,1.807,5.729,2.646,1.509.652,3.078,1.289,4.663,1.9a.513.513,0,0,1,.32.381c.3,1.532,1.521,9.469-3.725,15.29A14.864,14.864,0,0,1,13.455,24.6.513.513,0,0,1,13.288,24.628ZM3.293,5.454C3.012,7.138,2.142,14.39,6.823,19.583a13.831,13.831,0,0,0,6.465,4,13.83,13.83,0,0,0,6.465-4c4.68-5.193,3.81-12.445,3.529-14.129-1.506-.58-3-1.188-4.431-1.808-1.89-.814-3.76-1.675-5.563-2.563-1.8.888-3.673,1.749-5.563,2.565C6.289,4.267,4.8,4.874,3.293,5.454Z" transform="translate(0)" fill="#878787"/>
    <path id="Path_123" data-name="Path 123" d="M19.131,24.262a5.131,5.131,0,0,1,0-10.262.513.513,0,1,1,0,1.026,4.1,4.1,0,1,0,4.1,4.1.513.513,0,1,1,1.026,0A5.136,5.136,0,0,1,19.131,24.262Z" transform="translate(-5.843 -6.817)" fill="#878787"/>
    <path id="Path_124" data-name="Path 124" d="M22.589,21.157a.513.513,0,0,1-.363-.15l-2.052-2.052a.513.513,0,0,1,.722-.725l1.647,1.647,3.745-4.683a.513.513,0,1,1,.8.641l-4.1,5.131a.513.513,0,0,1-.372.191Z" transform="translate(-8.788 -7.304)" fill="#878787"/>
  </g>
</svg>
