<svg xmlns="http://www.w3.org/2000/svg" width="18.634" height="18.634" viewBox="0 0 18.634 18.634">
  <g id="search-interface-symbol" transform="translate(-0.006)">
    <g id="_x34__4_" transform="translate(0.006)">
      <g id="Group_429" data-name="Group 429" transform="translate(0)">
        <path id="Path_158" data-name="Path 158" d="M18.463,17.62l-4.811-4.734a7.61,7.61,0,0,0,2.034-5.171A7.779,7.779,0,0,0,7.846,0,7.778,7.778,0,0,0,.006,7.715a7.778,7.778,0,0,0,7.84,7.715,7.884,7.884,0,0,0,4.935-1.723l4.83,4.753a.61.61,0,0,0,.853,0A.587.587,0,0,0,18.463,17.62ZM7.846,14.243A6.581,6.581,0,0,1,1.212,7.715,6.581,6.581,0,0,1,7.846,1.187a6.581,6.581,0,0,1,6.634,6.528A6.581,6.581,0,0,1,7.846,14.243Z" transform="translate(-0.006)" fill="#2c2f45"/>
      </g>
    </g>
  </g>
</svg>
