<svg xmlns="http://www.w3.org/2000/svg" width="19.538" height="19.727" viewBox="0 0 19.538 19.727">
  <g id="Outline" transform="translate(-0.612)">
    <g id="Outline-2" data-name="Outline" transform="translate(0.612 0)">
      <path id="Path_77" data-name="Path 77" d="M59.433,15h-5.7a.231.231,0,1,0,0,.462h5.7a.231.231,0,0,0,0-.462Z" transform="translate(-45.349 -12.688)" fill="#fff"/>
      <path id="Path_78" data-name="Path 78" d="M59.433,34h-5.7a.231.231,0,1,0,0,.462h5.7a.231.231,0,0,0,0-.462Z" transform="translate(-45.349 -28.76)" fill="#fff"/>
      <path id="Path_79" data-name="Path 79" d="M59.433,53h-5.7a.231.231,0,1,0,0,.462h5.7a.231.231,0,0,0,0-.462Z" transform="translate(-45.349 -44.832)" fill="#fff"/>
      <path id="Path_80" data-name="Path 80" d="M35.771,30.5a.771.771,0,1,0,.771.771A.771.771,0,0,0,35.771,30.5Zm0,1.079a.308.308,0,1,1,.308-.308A.308.308,0,0,1,35.771,31.579Z" transform="translate(-29.7 -25.799)" fill="#fff"/>
      <path id="Path_81" data-name="Path 81" d="M35.771,49.5a.771.771,0,1,0,.771.771A.771.771,0,0,0,35.771,49.5Zm0,1.079a.308.308,0,1,1,.308-.308A.308.308,0,0,1,35.771,50.579Z" transform="translate(-29.7 -41.871)" fill="#fff"/>
      <path id="Path_82" data-name="Path 82" d="M15.544,0h-8a1.149,1.149,0,0,0-.806.327L4.412,2.586a1.162,1.162,0,0,0-.35.829v6.6H2.951a1.154,1.154,0,0,0-.883.41L.775,11.959a.694.694,0,0,0,.53,1.14H2.29v5.009a1.62,1.62,0,0,0,1.618,1.618H16.854a1.62,1.62,0,0,0,1.618-1.618V13.1h.985a.694.694,0,0,0,.53-1.14l-1.292-1.531a1.154,1.154,0,0,0-.883-.411H16.7V1.156A1.157,1.157,0,0,0,15.544,0ZM4.735,2.917,7.058.659A.7.7,0,0,1,7.145.589v1.8a.694.694,0,0,1-.694.694H4.613A.7.7,0,0,1,4.735,2.917Zm-.21.627H6.451A1.157,1.157,0,0,0,7.607,2.389V.462h7.937a.694.694,0,0,1,.694.694v8.862H4.525ZM1.305,12.637a.231.231,0,0,1-.177-.38l1.292-1.531a.692.692,0,0,1,.53-.247h9.4l-1.475,1.747a1.154,1.154,0,0,1-.883.41Zm11.311,6.627H3.908a1.157,1.157,0,0,1-1.156-1.156V13.1H9.991a1.615,1.615,0,0,0,1.237-.575l1.387-1.644Zm5.394-1.156a1.157,1.157,0,0,1-1.156,1.156H13.078V10.881l1.387,1.644A1.615,1.615,0,0,0,15.7,13.1H18.01Zm-.2-7.629a.692.692,0,0,1,.53.247l1.292,1.531a.231.231,0,0,1-.177.38H15.7a1.154,1.154,0,0,1-.883-.41L13.344,10.48Z" transform="translate(-0.612 0)" fill="#fff"/>
      <path id="Path_83" data-name="Path 83" d="M62.618,115.5H61.231a.231.231,0,0,0,0,.462h1.387a.231.231,0,1,0,0-.462Z" transform="translate(-51.693 -97.7)" fill="#fff"/>
      <path id="Path_84" data-name="Path 84" d="M61,107.731a.231.231,0,0,0,.231.231h1.387a.231.231,0,1,0,0-.462H61.231A.231.231,0,0,0,61,107.731Z" transform="translate(-51.693 -90.933)" fill="#fff"/>
      <path id="Path_85" data-name="Path 85" d="M22.966,108h-2a.462.462,0,0,0-.462.462v.771a.462.462,0,0,0,.462.462h2a.462.462,0,0,0,.462-.462v-.771A.462.462,0,0,0,22.966,108Zm-2,1.233v-.771h2v.771Z" transform="translate(-17.435 -91.356)" fill="#fff"/>
    </g>
  </g>
</svg>
