<svg id="Group_223" data-name="Group 223" xmlns="http://www.w3.org/2000/svg" width="18.103" height="17.274" viewBox="0 0 18.103 17.274">
  <g id="Group_222" data-name="Group 222">
    <path id="Path_95" data-name="Path 95" d="M18.042,217.21a1.245,1.245,0,0,0-1.005-.846l-4.752-.691-2.124-4.291a1.3,1.3,0,0,0-2.231,0l-2.124,4.291-4.741.691a1.244,1.244,0,0,0-.689,2.121l3.439,3.352L3,226.565a1.244,1.244,0,0,0,1.806,1.311l4.235-2.233,4.247,2.233a1.24,1.24,0,0,0,.579.143,1.264,1.264,0,0,0,.733-.236,1.248,1.248,0,0,0,.5-1.218l-.81-4.729,3.439-3.352A1.242,1.242,0,0,0,18.042,217.21Z" transform="translate(0 -210.746)" fill="#f9c414"/>
  </g>
</svg>
