<svg xmlns="http://www.w3.org/2000/svg" xmlns:xlink="http://www.w3.org/1999/xlink" width="38.792" height="38.792" viewBox="0 0 38.792 38.792">
  <defs>
    <filter id="Path_6" x="0" y="0" width="38.792" height="38.792" filterUnits="userSpaceOnUse">
      <feOffset dx="5" input="SourceAlpha"/>
      <feGaussianBlur stdDeviation="2.5" result="blur"/>
      <feFlood flood-opacity="0.161"/>
      <feComposite operator="in" in2="blur"/>
      <feComposite in="SourceGraphic"/>
    </filter>
  </defs>
  <g id="Group_340" data-name="Group 340" transform="translate(2.5 7.5)">
    <g id="icons8-verified-account">
      <g transform="matrix(1, 0, 0, 1, -2.5, -7.5)" filter="url(#Path_6)">
        <path id="Path_6-2" data-name="Path 6" d="M27.792,15.9a4.541,4.541,0,0,0-2.418-4A4.461,4.461,0,0,0,21.053,6.27a4.541,4.541,0,0,0-1.154.149,4.522,4.522,0,0,0-8.005,0,4.544,4.544,0,0,0-1.154-.149,4.461,4.461,0,0,0-4.321,5.623,4.522,4.522,0,0,0,0,8.006,4.461,4.461,0,0,0,4.321,5.623,4.541,4.541,0,0,0,1.154-.149,4.522,4.522,0,0,0,8.005,0,4.544,4.544,0,0,0,1.154.149A4.461,4.461,0,0,0,25.374,19.9,4.541,4.541,0,0,0,27.792,15.9Z" transform="translate(-1.5 3.5)" fill="#fff"/>
      </g>
    </g>
    <text id="_" data-name="!" transform="translate(9 18.307)" fill="#000944" font-size="18" font-family="SegoeUI, Segoe UI" letter-spacing="0.03em"><tspan x="0" y="0">!</tspan></text>
  </g>
</svg>
