<svg xmlns="http://www.w3.org/2000/svg" width="15.344" height="15.619" viewBox="0 0 15.344 15.619">
  <g id="user" transform="translate(-23.922 -27)">
    <path id="Path_75" data-name="Path 75" d="M49.805,31.4a4.4,4.4,0,1,0-4.4,4.4A4.4,4.4,0,0,0,49.805,31.4Zm-7.657,0A3.254,3.254,0,1,1,45.4,34.657,3.251,3.251,0,0,1,42.148,31.4Z" transform="translate(-13.809)" fill="#fff"/>
    <path id="Path_76" data-name="Path 76" d="M24.224,86.206a.54.54,0,0,0,.287.077.555.555,0,0,0,.5-.287A7.575,7.575,0,0,1,38.2,86a.575.575,0,1,0,1-.574,8.741,8.741,0,0,0-15.2,0A.575.575,0,0,0,24.224,86.206Z" transform="translate(0 -43.664)" fill="#fff"/>
  </g>
</svg>
