<svg xmlns="http://www.w3.org/2000/svg" xmlns:xlink="http://www.w3.org/1999/xlink" width="40.848" height="26.933" viewBox="0 0 40.848 26.933">
  <defs>
    <filter id="Path_6" x="0" y="0" width="26.933" height="26.933" filterUnits="userSpaceOnUse">
      <feOffset dx="5" input="SourceAlpha"/>
      <feGaussianBlur stdDeviation="2.5" result="blur"/>
      <feFlood flood-opacity="0.161"/>
      <feComposite operator="in" in2="blur"/>
      <feComposite in="SourceGraphic"/>
    </filter>
  </defs>
  <g id="Group_38" data-name="Group 38" transform="translate(2.5 7.5)">
    <rect id="Rectangle_10" data-name="Rectangle 10" width="34" height="7" rx="3.5" transform="translate(4.348 2.366)" fill="#4caf50"/>
    <g id="icons8-verified-account">
      <g transform="matrix(1, 0, 0, 1, -2.5, -7.5)" filter="url(#Path_6)">
        <path id="Path_6-2" data-name="Path 6" d="M15.933,9.966A2.277,2.277,0,0,0,14.72,7.959a2.238,2.238,0,0,0-2.167-2.82,2.277,2.277,0,0,0-.579.075,2.268,2.268,0,0,0-4.015,0,2.279,2.279,0,0,0-.579-.075,2.238,2.238,0,0,0-2.167,2.82,2.268,2.268,0,0,0,0,4.015,2.238,2.238,0,0,0,2.167,2.82,2.277,2.277,0,0,0,.579-.075,2.268,2.268,0,0,0,4.015,0,2.279,2.279,0,0,0,.579.075,2.238,2.238,0,0,0,2.167-2.82A2.278,2.278,0,0,0,15.933,9.966Z" transform="translate(-1.5 3.5)" fill="#4caf50"/>
      </g>
      <path id="Path_7" data-name="Path 7" d="M16.8,22.133l-2.212-2.212.844-.844L16.8,20.445l2.86-2.859.844.844Z" transform="translate(-11.428 -13.533)" fill="#fff"/>
    </g>
    <text id="Verified" transform="translate(15.348 7.366)" fill="#fff" font-size="5" font-family="SegoeUI-LightItalic, Segoe UI" font-weight="300" font-style="italic" letter-spacing="0.025em"><tspan x="0" y="0">Verified</tspan></text>
  </g>
</svg>
