<svg xmlns="http://www.w3.org/2000/svg" width="38.115" height="42.965" viewBox="0 0 38.115 42.965">
  <g id="warranty" transform="translate(-429.092 -457.8)">
    <path id="Path_18" data-name="Path 18" d="M468.5,506.677l5,4.969,8.146-8.146" transform="translate(-26.785 -31.107)" fill="none" stroke="#6b6b6b" stroke-linecap="round" stroke-linejoin="round" stroke-miterlimit="10" stroke-width="0.7"/>
    <circle id="Ellipse_2" data-name="Ellipse 2" cx="10.756" cy="10.756" r="10.756" transform="translate(435.971 485.366) rotate(-80.782)" fill="none" stroke="#6b6b6b" stroke-linecap="round" stroke-linejoin="round" stroke-miterlimit="10" stroke-width="0.7"/>
    <g id="Group_23" data-name="Group 23" transform="translate(453.918 488.432)">
      <path id="Path_19" data-name="Path 19" d="M527.147,554.5l3.931,7.3-6.479-1.824" transform="translate(-519.159 -554.5)" fill="none" stroke="#6b6b6b" stroke-linecap="round" stroke-linejoin="round" stroke-miterlimit="10" stroke-width="0.7"/>
      <path id="Path_20" data-name="Path 20" d="M507.3,572.352l3.522,6.2,1.887-6.447" transform="translate(-507.3 -566.565)" fill="none" stroke="#6b6b6b" stroke-linecap="round" stroke-linejoin="round" stroke-miterlimit="10" stroke-width="0.7"/>
    </g>
    <g id="Group_24" data-name="Group 24" transform="translate(430.425 488.432)">
      <path id="Path_21" data-name="Path 21" d="M436.531,554.5l-3.931,7.3,6.479-1.824" transform="translate(-432.6 -554.5)" fill="none" stroke="#6b6b6b" stroke-linecap="round" stroke-linejoin="round" stroke-miterlimit="10" stroke-width="0.7"/>
      <path id="Path_22" data-name="Path 22" d="M458.741,572.352l-3.554,6.2L453.3,572.1" transform="translate(-446.79 -566.565)" fill="none" stroke="#6b6b6b" stroke-linecap="round" stroke-linejoin="round" stroke-miterlimit="10" stroke-width="0.7"/>
    </g>
    <g id="Group_25" data-name="Group 25" transform="translate(429.427 458.121)">
      <path id="Path_23" data-name="Path 23" d="M488.394,459.75a4.108,4.108,0,0,0,1.824-.566c1.352-.629,2.7-1.352,3.994-.944a4.57,4.57,0,0,1,2.139,2.044s.975,1.761,1.1,1.918a3.264,3.264,0,0,0,.535.629,3.972,3.972,0,0,0,1.887.66,8.835,8.835,0,0,1,3.145.975,2.832,2.832,0,0,1,1.2,2.3,15.537,15.537,0,0,1-.252,2.925,2.968,2.968,0,0,0,.5,2.2,26.631,26.631,0,0,1,2.107,2.453,2.98,2.98,0,0,1,.535,2.7c-.377,1.415-2.768,3.334-3.051,4.183a8.146,8.146,0,0,0,.031,2.893c.094.912.566,3.145-1.541,4.12a5.1,5.1,0,0,1-1.51.5l-1.415.283a4.446,4.446,0,0,0-1.793.723,25.746,25.746,0,0,0-1.7,2.7,4.643,4.643,0,0,1-1.6,1.635,3.989,3.989,0,0,1-3.271-.283,6.488,6.488,0,0,0-2.956-1.069" transform="translate(-469.784 -458.121)" fill="none" stroke="#6b6b6b" stroke-linecap="round" stroke-linejoin="round" stroke-miterlimit="10" stroke-width="0.7"/>
      <path id="Path_24" data-name="Path 24" d="M448.289,459.75a4.108,4.108,0,0,1-1.824-.566c-1.352-.629-2.7-1.352-3.994-.944a4.708,4.708,0,0,0-2.17,2.044s-.975,1.761-1.1,1.918a3.266,3.266,0,0,1-.535.629,3.973,3.973,0,0,1-1.887.66,8.835,8.835,0,0,0-3.145.975,2.71,2.71,0,0,0-1.2,2.3,15.532,15.532,0,0,0,.252,2.925,2.967,2.967,0,0,1-.5,2.2,26.634,26.634,0,0,0-2.107,2.453,3.076,3.076,0,0,0-.535,2.7c.377,1.415,2.768,3.334,3.051,4.183a8.145,8.145,0,0,1-.031,2.893c-.094.912-.566,3.145,1.541,4.12a5.1,5.1,0,0,0,1.51.5l1.415.283a4.446,4.446,0,0,1,1.793.723,25.757,25.757,0,0,1,1.7,2.7,4.644,4.644,0,0,0,1.6,1.635,3.989,3.989,0,0,0,3.271-.283,6.488,6.488,0,0,1,2.956-1.069" transform="translate(-429.427 -458.121)" fill="none" stroke="#6b6b6b" stroke-linecap="round" stroke-linejoin="round" stroke-miterlimit="10" stroke-width="0.7"/>
    </g>
  </g>
</svg>
