<svg xmlns="http://www.w3.org/2000/svg" width="27" height="28.5" viewBox="0 0 27 28.5">
  <g id="bx-user" transform="translate(-4.5 -3)">
    <path id="Path_4" data-name="Path 4" d="M22.5,10.5A4.5,4.5,0,1,1,18,6,4.5,4.5,0,0,1,22.5,10.5Z" fill="none"/>
    <path id="Path_5" data-name="Path 5" d="M18,3a7.5,7.5,0,1,0,7.5,7.5A7.509,7.509,0,0,0,18,3Zm0,12a4.5,4.5,0,1,1,4.5-4.5A4.505,4.505,0,0,1,18,15ZM31.5,31.5V30A10.514,10.514,0,0,0,21,19.5H15A10.513,10.513,0,0,0,4.5,30v1.5h3V30A7.508,7.508,0,0,1,15,22.5h6A7.508,7.508,0,0,1,28.5,30v1.5Z" fill="#acacac"/>
  </g>
</svg>
