<svg xmlns="http://www.w3.org/2000/svg" width="128" height="40" viewBox="0 0 128 40">
  <g id="Group_137" data-name="Group 137" transform="translate(-1737 -289)">
    <rect id="Rectangle_67" data-name="Rectangle 67" width="128" height="40" transform="translate(1737 289)" fill="none"/>
    <g id="Group_136" data-name="Group 136">
      <path id="Path_76" data-name="Path 76" d="M1861,329H1741a4.012,4.012,0,0,1-4-4V293a4.012,4.012,0,0,1,4-4h120a4.012,4.012,0,0,1,4,4v32A4.012,4.012,0,0,1,1861,329Z"/>
      <path id="Path_77" data-name="Path 77" d="M1764,308.8a5.8,5.8,0,0,1,2.7-4.7,6.231,6.231,0,0,0-4.5-2.5c-1.9-.2-3.8,1.1-4.7,1.1-1,0-2.5-1.1-4.1-1.1a5.941,5.941,0,0,0-5.1,3.1c-2.2,3.8-.6,9.4,1.5,12.5,1.1,1.5,2.3,3.2,3.9,3.1s2.2-1,4.1-1,2.4,1,4.1,1,2.8-1.5,3.8-3a11.463,11.463,0,0,0,1.7-3.5A5.529,5.529,0,0,1,1764,308.8Z" fill="#fff"/>
      <path id="Path_78" data-name="Path 78" d="M1760.9,299.6a6.2,6.2,0,0,0,1.3-4,5.355,5.355,0,0,0-3.6,1.9,5.057,5.057,0,0,0-1.3,3.8,4.75,4.75,0,0,0,3.6-1.7Z" fill="#fff"/>
      <path id="Path_79" data-name="Path 79" d="M1784.6,320.1h2.2l-4-12.9h-2.6l-4.2,12.9h2.1l1.1-3.8h4.2Zm-2.7-8.8,1.1,3.4h-3.5l1.1-3.4c.3-1,.5-1.9.6-2.4.4,1.2.6,2.1.7,2.4Z" fill="#fff"/>
      <path id="Path_80" data-name="Path 80" d="M1796.2,319.2a5.325,5.325,0,0,0,1.3-3.8,4.237,4.237,0,0,0-1.3-3.4,3.225,3.225,0,0,0-2.7-1.3,3.445,3.445,0,0,0-3.1,1.7l-.1-1.5h-1.8c.1,1.1.1,2.1.1,3.1v10h2.1v-4.9a2.722,2.722,0,0,0,2.6,1.3A3.847,3.847,0,0,0,1796.2,319.2Zm-1.4-6a4.4,4.4,0,0,1-.1,4.6,2.019,2.019,0,0,1-1.8.9,1.99,1.99,0,0,1-1.6-.7,2.523,2.523,0,0,1-.6-1.7v-1.6a1.76,1.76,0,0,1,.1-.6,2.223,2.223,0,0,1,.8-1.3,2.39,2.39,0,0,1,1.4-.5A2.019,2.019,0,0,1,1794.8,313.2Z" fill="#fff"/>
      <path id="Path_81" data-name="Path 81" d="M1806.9,319.2a5.325,5.325,0,0,0,1.3-3.8,4.237,4.237,0,0,0-1.3-3.4,3.225,3.225,0,0,0-2.7-1.3,3.445,3.445,0,0,0-3.1,1.7l-.1-1.5h-1.8c.1,1.1.1,2.1.1,3.1v10h2.1v-4.9a2.722,2.722,0,0,0,2.6,1.3A3.847,3.847,0,0,0,1806.9,319.2Zm-1.4-6a4.4,4.4,0,0,1-.1,4.6,2.019,2.019,0,0,1-1.8.9,1.99,1.99,0,0,1-1.6-.7,2.523,2.523,0,0,1-.6-1.7v-1.6a1.76,1.76,0,0,1,.1-.6,2.223,2.223,0,0,1,.8-1.3,2.39,2.39,0,0,1,1.4-.5,2.019,2.019,0,0,1,1.8.9Z" fill="#fff"/>
      <path id="Path_82" data-name="Path 82" d="M1820.2,316.5a3.693,3.693,0,0,1-1.1,2.7,4.761,4.761,0,0,1-3.5,1.1,6.183,6.183,0,0,1-3.3-.8l.5-1.7a6.109,6.109,0,0,0,3,.8,2.969,2.969,0,0,0,1.8-.5,1.816,1.816,0,0,0,.6-1.4,1.9,1.9,0,0,0-.5-1.3,5.011,5.011,0,0,0-1.8-1c-2.3-.8-3.4-2.1-3.4-3.7a3.225,3.225,0,0,1,1.2-2.6,4.555,4.555,0,0,1,3.2-1,6.236,6.236,0,0,1,2.9.6l-.5,1.7a4.871,4.871,0,0,0-2.5-.6,2.86,2.86,0,0,0-1.7.5,1.656,1.656,0,0,0-.5,1.2,1.76,1.76,0,0,0,.6,1.3,7.76,7.76,0,0,0,1.9,1,6.746,6.746,0,0,1,2.5,1.6,4.024,4.024,0,0,1,.6,2.1Z" fill="#fff"/>
      <path id="Path_83" data-name="Path 83" d="M1827,312.4h-2.3v4.5c0,1.1.4,1.7,1.2,1.7a2.22,2.22,0,0,0,.9-.1l.1,1.6a3.664,3.664,0,0,1-1.6.2,2.352,2.352,0,0,1-1.9-.7,3.4,3.4,0,0,1-.7-2.5v-4.7h-1.4v-1.6h1.4v-1.7l2-.6v2.3h2.3v1.6Z" fill="#fff"/>
      <path id="Path_84" data-name="Path 84" d="M1836.1,318.9a5.13,5.13,0,0,0,1.2-3.5,5.331,5.331,0,0,0-1.1-3.4,4.223,4.223,0,0,0-3.3-1.4,4.44,4.44,0,0,0-3.4,1.4,4.752,4.752,0,0,0-1.3,3.5,4.871,4.871,0,0,0,1.2,3.4,4.223,4.223,0,0,0,3.3,1.4A4.6,4.6,0,0,0,1836.1,318.9Zm-1.6-5.6a3.8,3.8,0,0,1,.6,2.2,4.031,4.031,0,0,1-.6,2.2,2.265,2.265,0,0,1-1.9,1.1,2.144,2.144,0,0,1-1.9-1.1,3.8,3.8,0,0,1-.6-2.2,4.031,4.031,0,0,1,.6-2.2,2.191,2.191,0,0,1,3.8,0Z" fill="#fff"/>
      <path id="Path_85" data-name="Path 85" d="M1841.6,313.3a2.136,2.136,0,0,1,1.7-.8,3.466,3.466,0,0,1,.6.093v.007h.1a.74.74,0,0,1-.1-.007V310.5h-.5a2.976,2.976,0,0,0-1.5.5,3.955,3.955,0,0,0-1,1.5h-.1l-.1-1.8h-1.8a26.23,26.23,0,0,1,.1,2.9V320h2.1v-4.9A3.454,3.454,0,0,1,1841.6,313.3Z" fill="#fff"/>
      <path id="Path_86" data-name="Path 86" d="M1853.1,315.9a2.218,2.218,0,0,0,.1-.9,4.2,4.2,0,0,0-.9-2.9,3.328,3.328,0,0,0-3-1.5,4,4,0,0,0-3.3,1.5,5.625,5.625,0,0,0-1.1,3.5,4.7,4.7,0,0,0,1.2,3.4,4.375,4.375,0,0,0,3.4,1.3,7.454,7.454,0,0,0,3.1-.6l-.3-1.4a6.567,6.567,0,0,1-2.5.4,3.221,3.221,0,0,1-2-.7,2.583,2.583,0,0,1-.9-2.1Zm-3.8-3.9a1.8,1.8,0,0,1,1.6.9,2.875,2.875,0,0,1,.4,1.5h-4.2a3.819,3.819,0,0,1,.6-1.6A1.943,1.943,0,0,1,1849.3,312Z" fill="#fff"/>
      <path id="Path_87" data-name="Path 87" d="M1781.4,301.9a3.634,3.634,0,0,0,.1-4.9,3.727,3.727,0,0,0-2.5-.7,9.722,9.722,0,0,0-1.8.1v6.2a6.622,6.622,0,0,0,1.5.1A4.138,4.138,0,0,0,1781.4,301.9Zm-.7-4.3a2.352,2.352,0,0,1,.6,1.7,2.707,2.707,0,0,1-.6,1.9,2.445,2.445,0,0,1-1.8.6h-.7v-4.7a1.949,1.949,0,0,1,.8-.1,2.352,2.352,0,0,1,1.7.6Z" fill="#fff"/>
      <path id="Path_88" data-name="Path 88" d="M1787.4,302a2.708,2.708,0,0,0,0-3.4,1.865,1.865,0,0,0-1.6-.7,2.06,2.06,0,0,0-1.7.7,2.708,2.708,0,0,0,0,3.4,1.865,1.865,0,0,0,1.6.7A2.06,2.06,0,0,0,1787.4,302Zm-.7-2.8a2.015,2.015,0,0,1,.3,1.1,1.493,1.493,0,0,1-.3,1,.961.961,0,0,1-.9.6.874.874,0,0,1-.9-.5,2.166,2.166,0,0,1,0-2.2,1.05,1.05,0,0,1,.9-.5A.874.874,0,0,1,1786.7,299.2Z" fill="#fff"/>
      <path id="Path_89" data-name="Path 89" d="M1795.7,298l-1.4,4.6h-.9l-.6-2a.8.8,0,1,0-.8,0l-.6,2h-.9L1789,298h1l.5,2.2.3,1.5c.1-.4.2-.9.4-1.5l.6-2.2h.8l.6,2.1a8.333,8.333,0,0,1,.4,1.5l.3-1.5.6-2.1Z" fill="#fff"/>
      <path id="Path_90" data-name="Path 90" d="M1800.9,302.6h-1V300q0-1.2-.9-1.2a.908.908,0,0,0-.7.3,1.136,1.136,0,0,0-.3.8v2.7h-1V298h.9v.7a2.652,2.652,0,0,1,.5-.6,1.613,1.613,0,0,1,.9-.3,1.5,1.5,0,0,1,1.1.4,1.721,1.721,0,0,1,.5,1.5Z" fill="#fff"/>
      <path id="Path_91" data-name="Path 91" d="M1803.7,302.6h-1v-6.7h1Z" fill="#fff"/>
      <path id="Path_92" data-name="Path 92" d="M1809.1,302a2.708,2.708,0,0,0,0-3.4,1.865,1.865,0,0,0-1.6-.7,2.413,2.413,0,0,0-1.7.7,2.708,2.708,0,0,0,0,3.4,1.865,1.865,0,0,0,1.6.7A2.06,2.06,0,0,0,1809.1,302Zm-.7-2.8a2.015,2.015,0,0,1,.3,1.1,1.493,1.493,0,0,1-.3,1,.961.961,0,0,1-.9.6.874.874,0,0,1-.9-.5,2.166,2.166,0,0,1,0-2.2,1.05,1.05,0,0,1,.9-.5A.874.874,0,0,1,1808.4,299.2Z" fill="#fff"/>
      <path id="Path_93" data-name="Path 93" d="M1813.7,302.6h.9a4.9,4.9,0,0,1,.1-1.1v-1.7c0-1.3-.6-1.9-1.8-1.9a2.537,2.537,0,0,0-1.6.4l.2.7a2.376,2.376,0,0,1,1.2-.3.8.8,0,0,1,.9.9v.1a3.737,3.737,0,0,0-2,.4,1.357,1.357,0,0,0-.7,1.3,1.8,1.8,0,0,0,.4.9,1.159,1.159,0,0,0,1,.4,1.612,1.612,0,0,0,1.3-.6l.1.5Zm-.1-2.3v.9a1,1,0,0,1-.4.5,1.422,1.422,0,0,1-.6.2.683.683,0,0,1-.7-.7C1811.9,300.6,1812.5,300.3,1813.6,300.3Z" fill="#fff"/>
      <path id="Path_94" data-name="Path 94" d="M1819.5,302.6h.9V296h-1v2.6a1.486,1.486,0,0,0-1.3-.6,1.974,1.974,0,0,0-1.4.6,2.792,2.792,0,0,0-.6,1.8,2.311,2.311,0,0,0,.5,1.7,1.816,1.816,0,0,0,1.4.6,1.476,1.476,0,0,0,1.5-.8Zm-.1-2.7v.8a2.236,2.236,0,0,1-.3,1,.909.909,0,0,1-.8.4,1.05,1.05,0,0,1-.9-.5,1.8,1.8,0,0,1-.3-1.1,2.132,2.132,0,0,1,.3-1.2,1.05,1.05,0,0,1,.9-.5.844.844,0,0,1,.7.2,2.1,2.1,0,0,1,.4.6Z" fill="#fff"/>
      <path id="Path_95" data-name="Path 95" d="M1828.5,302a2.708,2.708,0,0,0,0-3.4,1.865,1.865,0,0,0-1.6-.7,2.06,2.06,0,0,0-1.7.7,2.708,2.708,0,0,0,0,3.4,1.865,1.865,0,0,0,1.6.7A2.06,2.06,0,0,0,1828.5,302Zm-.8-2.8a2.015,2.015,0,0,1,.3,1.1,1.493,1.493,0,0,1-.3,1,.961.961,0,0,1-.9.6.874.874,0,0,1-.9-.5,2.166,2.166,0,0,1,0-2.2,1.05,1.05,0,0,1,.9-.5A.874.874,0,0,1,1827.7,299.2Z" fill="#fff"/>
      <path id="Path_96" data-name="Path 96" d="M1834.6,302.6h-1V300q0-1.2-.9-1.2a.908.908,0,0,0-.7.3,1.136,1.136,0,0,0-.3.8v2.7h-1V298h.9v.7a2.652,2.652,0,0,1,.5-.6,1.613,1.613,0,0,1,.9-.3,1.5,1.5,0,0,1,1.1.4,1.721,1.721,0,0,1,.5,1.5Z" fill="#fff"/>
      <path id="Path_97" data-name="Path 97" d="M1841.4,298.8h-1.1V301c0,.6.2.8.6.8h.5v.8a1.949,1.949,0,0,1-.8.1.975.975,0,0,1-.9-.4,1.923,1.923,0,0,1-.3-1.2v-2.3h-.7V298h.7v-.8l1-.3V298h1.1v.8h-.1Z" fill="#fff"/>
      <path id="Path_98" data-name="Path 98" d="M1846.8,302.6h-1V300q0-1.2-.9-1.2a.963.963,0,0,0-1,.7v3.1h-1v-6.7h1v2.8a1.6,1.6,0,0,1,1.4-.8,1.159,1.159,0,0,1,1,.4,2.25,2.25,0,0,1,.5,1.5v2.8Z" fill="#fff"/>
      <path id="Path_99" data-name="Path 99" d="M1852.3,300.6v-.5a2.648,2.648,0,0,0-.3-1.4,1.578,1.578,0,0,0-1.5-.7,1.865,1.865,0,0,0-1.6.7,2.3,2.3,0,0,0,1.7,4,3.339,3.339,0,0,0,1.5-.3l-.2-.7a3.73,3.73,0,0,1-1.2.2,1.689,1.689,0,0,1-1-.3,1.333,1.333,0,0,1-.4-1Zm-1.1-1.6a1.884,1.884,0,0,1,.2.8h-2.1a1.135,1.135,0,0,1,.3-.8.909.909,0,0,1,.8-.4A.812.812,0,0,1,1851.2,299Z" fill="#fff"/>
    </g>
  </g>
</svg>
