<svg xmlns="http://www.w3.org/2000/svg" width="22.286" height="24" viewBox="0 0 22.286 24">
  <g id="bell-dot" transform="translate(-4.5 -2.25)">
    <path id="Path_10" data-name="Path 10" d="M23.357,15.793a17.934,17.934,0,0,0,.686,2.914l1.029,2.914-.857,1.2h-6a3.515,3.515,0,0,1-3.429,3.429,3.113,3.113,0,0,1-2.4-1.029,3.385,3.385,0,0,1-1.029-2.4h-6l-.857-1.2,1.029-2.914a17.209,17.209,0,0,0,.686-4.114V10.821A7.675,7.675,0,0,1,6.9,7.393,8.964,8.964,0,0,1,8.957,4.479a6.857,6.857,0,0,1,3.086-1.714,7.764,7.764,0,0,1,2.743-.514,18.7,18.7,0,0,0-1.029,1.886,1.848,1.848,0,0,0-1.2.343,4.887,4.887,0,0,0-2.4,1.371A5.569,5.569,0,0,0,8.443,8.079a7.107,7.107,0,0,0-.514,2.743v3.771a21.58,21.58,0,0,1-.686,4.629l-.686,1.886H23.014l-.686-1.886a19.049,19.049,0,0,1-.622-2.869l-.063-.388A5.285,5.285,0,0,0,23.357,15.793Zm-8.571,8.743a1.852,1.852,0,0,0,1.2-.514,1.556,1.556,0,0,0,.514-1.2H13.071a1.556,1.556,0,0,0,.514,1.2A1.852,1.852,0,0,0,14.786,24.536Zm12-17.143A5.143,5.143,0,1,1,21.643,2.25,5.143,5.143,0,0,1,26.786,7.393Z" transform="translate(0)" fill="#fff"/>
  </g>
</svg>
