<svg xmlns="http://www.w3.org/2000/svg" width="34" height="31" viewBox="0 0 34 31">
  <g id="box" transform="translate(-1 -2.5)">
    <path id="Path_35" data-name="Path 35" d="M15,18a1.5,1.5,0,0,0,0,3h6a1.5,1.5,0,0,0,0-3Z" fill="#00a483" stroke="#fff" stroke-width="1"/>
    <path id="Path_36" data-name="Path 36" d="M6,3A4.5,4.5,0,0,0,1.5,7.5v21A4.5,4.5,0,0,0,6,33H30a4.5,4.5,0,0,0,4.5-4.5V7.5A4.5,4.5,0,0,0,30,3ZM30,6H6A1.5,1.5,0,0,0,4.5,7.5V12h27V7.5A1.5,1.5,0,0,0,30,6ZM4.5,28.5V15h27V28.5A1.5,1.5,0,0,1,30,30H6A1.5,1.5,0,0,1,4.5,28.5Z" fill="#00a483" stroke="#fff" stroke-width="1"/>
  </g>
</svg>
