<svg xmlns="http://www.w3.org/2000/svg" width="30.001" height="29.5" viewBox="0 0 30.001 29.5">
  <g id="charging-station" transform="translate(0 29.5) rotate(-90)">
    <path id="Path_37" data-name="Path 37" d="M5.2,0,3.273,1.157,5.625,5.078H0l4.4,7.328,1.928-1.157L3.974,7.328H9.6Z" transform="translate(3.888 7.298)" fill="#00a483"/>
    <path id="Path_38" data-name="Path 38" d="M29.5,23.626H28.375V27h-2.25V23.626H25v-6.75h1.125V3.938a1.688,1.688,0,0,0-3.375,0V13.5a1.125,1.125,0,0,1-1.125,1.125h-4.5v11.25A1.125,1.125,0,0,1,16,27l-3.409,3H4.585l-3.21-3A1.125,1.125,0,0,1,.25,25.876V2.251H0V0H17.375v2.25h-.25V12.376H20.5V3.938a3.938,3.938,0,1,1,7.876,0V16.876H29.5ZM14.875,2.251H2.5v22.5l2.236,3h7.936l2.2-3Z" transform="translate(0 0)" fill="#00a483"/>
  </g>
</svg>
