<svg xmlns="http://www.w3.org/2000/svg" width="24.477" height="22.728" viewBox="0 0 24.477 22.728">
  <g id="check2-circle" transform="translate(-3.375 -3.373)">
    <path id="Path_948" data-name="Path 948" d="M29.1,5.88a.874.874,0,0,1,0,1.238L16.862,19.356a.874.874,0,0,1-1.238,0l-5.245-5.245a.875.875,0,0,1,1.238-1.238L16.243,17.5,27.863,5.879a.874.874,0,0,1,1.238,0Z" transform="translate(-1.505 -0.502)" fill="#00a483"/>
    <path id="Path_949" data-name="Path 949" d="M14.739,5.123a9.615,9.615,0,1,0,9.615,9.615.874.874,0,1,1,1.748,0A11.364,11.364,0,1,1,20.42,4.9a.874.874,0,1,1-.874,1.512A9.566,9.566,0,0,0,14.739,5.123Z" transform="translate(0 0)" fill="#00a483"/>
  </g>
</svg>
