<svg xmlns="http://www.w3.org/2000/svg" width="22.781" height="25.722" viewBox="0 0 22.781 25.722">
  <g id="paint-roller" transform="translate(-29.339 0.05)">
    <path id="Path_114" data-name="Path 114" d="M50.713,3.229H50.1V1.356A1.358,1.358,0,0,0,48.743,0h-16.5a1.358,1.358,0,0,0-1.356,1.356v.177H29.765a.376.376,0,0,0-.376.376V5.3a.376.376,0,0,0,.376.376h1.122v.178A1.358,1.358,0,0,0,32.243,7.21h2.464V9.082a1.486,1.486,0,1,0,2.972,0V7.21h5.834a.376.376,0,1,0,0-.752H37.68V3.348a.734.734,0,0,1,1.468,0v.843a1.486,1.486,0,0,0,2.972,0V.752h6.623a.6.6,0,0,1,.6.6v4.5a.6.6,0,0,1-.6.6H45.018a.376.376,0,1,0,0,.752h3.725A1.358,1.358,0,0,0,50.1,5.854V3.981h.614a.6.6,0,0,1,.6.6V7.477a.6.6,0,0,1-.5.595l-9.137,1.6a1.354,1.354,0,0,0-1.122,1.336v1.31H39.491a.376.376,0,0,0-.376.376v1.413h-.082a.376.376,0,0,0-.376.376v8.864a2.276,2.276,0,1,0,4.553,0V20.391a.376.376,0,0,0-.752,0v2.955a1.524,1.524,0,1,1-3.049,0V14.858h3.049v4.029a.376.376,0,0,0,.752,0v-4.4a.376.376,0,0,0-.376-.376h-.082V12.693a.376.376,0,0,0-.376-.376H41.31v-1.31a.6.6,0,0,1,.5-.595l9.137-1.6A1.354,1.354,0,0,0,52.07,7.477V4.585a1.358,1.358,0,0,0-1.356-1.356Zm-20.572,1.7V2.286h.746V4.924Zm11.226-.734a.734.734,0,0,1-1.468,0V3.348a1.486,1.486,0,0,0-2.972,0V9.082a.734.734,0,1,1-1.468,0V4.357a.376.376,0,1,0-.752,0v2.1H32.243a.6.6,0,0,1-.6-.6v-4.5a.6.6,0,0,1,.6-.6h2.464v2.1a.376.376,0,0,0,.752,0V.752h5.907ZM42,14.106H39.867V13.069H42Z" fill="#878787" stroke="#878787" stroke-width="0.1"/>
  </g>
</svg>
