<svg xmlns="http://www.w3.org/2000/svg" width="26.607" height="21" viewBox="0 0 26.607 21" >
  <path id="edit" d="M13.244,15.75l1.73-1.73-2.267-2.267-1.73,1.73v.835h1.432V15.75h.835ZM19.806,5.011a.308.308,0,0,0-.492.015l-5.22,5.22a.338.338,0,1,0,.477.477l5.22-5.22a.308.308,0,0,0,.015-.492ZM21,13.871V16.7A4.3,4.3,0,0,1,16.7,21H4.3a4.136,4.136,0,0,1-3.035-1.261A4.141,4.141,0,0,1,0,16.7V4.3A4.136,4.136,0,0,1,1.261,1.261,4.141,4.141,0,0,1,4.3,0H16.7a4.1,4.1,0,0,1,1.745.373.454.454,0,0,1,.269.343.465.465,0,0,1-.134.433l-.731.731a.437.437,0,0,1-.477.12,2.643,2.643,0,0,0-.671-.09H4.3a2.3,2.3,0,0,0-1.685.7,2.3,2.3,0,0,0-.7,1.685V16.7a2.3,2.3,0,0,0,.7,1.685,2.3,2.3,0,0,0,1.685.7H16.7A2.393,2.393,0,0,0,19.091,16.7V14.825a.446.446,0,0,1,.134-.328l.955-.955a.448.448,0,0,1,.522-.1.432.432,0,0,1,.3.433ZM19.567,2.864l4.3,4.3L13.84,17.182H9.545v-4.3Zm6.622,1.969L24.818,6.2l-4.3-4.3L21.894.537a1.439,1.439,0,0,1,2.028,0L26.189,2.8a1.381,1.381,0,0,1,.418,1.014,1.381,1.381,0,0,1-.418,1.014Z" fill="#fff"/>
</svg>
