<svg id="Group_28" data-name="Group 28" xmlns="http://www.w3.org/2000/svg" width="63.912" height="28.811" viewBox="0 0 63.912 28.811">
  <path id="Union_4" data-name="Union 4" d="M9.617,25.966a5.453,5.453,0,0,1-6.773-6.772,5.452,5.452,0,0,1,0-9.576A5.452,5.452,0,0,1,9.616,2.846a5.452,5.452,0,0,1,9.577,0,5.456,5.456,0,0,1,6.675,3.384H56.125a7.787,7.787,0,1,1,0,15.574H26.084a5.454,5.454,0,0,1-6.89,4.163,5.452,5.452,0,0,1-9.576,0Z" fill="#c7c7c7"/>
  <g id="exclamation" transform="translate(12.848 9.344)">
    <path id="Path_41" data-name="Path 41" d="M15.755,18.976A1.426,1.426,0,1,1,17.181,20.4,1.426,1.426,0,0,1,15.755,18.976Zm.139-8.56a1.29,1.29,0,1,1,2.566,0l-.5,5a.787.787,0,0,1-1.568,0Z" transform="translate(-15.755 -8.992)" fill="#4e4e4e"/>
  </g>
  <text id="In_active" data-name="In active" transform="translate(27.207 16.906)" fill="#4e4e4e" font-size="7" font-family="OpenSans-SemiboldItalic, Open Sans" font-weight="600" font-style="italic"><tspan x="0" y="0">IN ACTIVE</tspan></text>
</svg>
