<svg xmlns="http://www.w3.org/2000/svg" xmlns:xlink="http://www.w3.org/1999/xlink" width="82.923" height="37.5" viewBox="0 0 82.923 37.5">
  <defs>
    <clipPath id="clip-path">
      <rect id="Rectangle_4" data-name="Rectangle 4" width="82.923" height="27.709" fill="#2c2f44"/>
    </clipPath>
  </defs>
  <g id="Group_860" data-name="Group 860" transform="translate(-857 -632)">
    <g id="Group_18" data-name="Group 18" transform="translate(857 632)">
      <g id="Group_17" data-name="Group 17" clip-path="url(#clip-path)">
        <path id="Path_11" data-name="Path 11" d="M19.081,14.092l7.624-7.624a12.413,12.413,0,0,0-1.048-1.516l-5.481,5.481L18.451,8.705l5.494-5.493a12.361,12.361,0,0,0-2.327-1.532A15.788,15.788,0,0,0,14.284,0,15.787,15.787,0,0,0,6.95,1.682,12.364,12.364,0,0,0,1.846,6.5,14.254,14.254,0,0,0,0,13.856a14.253,14.253,0,0,0,1.846,7.357,12.365,12.365,0,0,0,5.1,4.816,15.788,15.788,0,0,0,7.334,1.679,15.791,15.791,0,0,0,7.334-1.679,12.362,12.362,0,0,0,3.405-2.545l-5.942-5.942a2.442,2.442,0,0,1,0-3.45m-2.3,3.239a3.259,3.259,0,0,1-5.009,0,5.3,5.3,0,0,1-.983-3.475,5.214,5.214,0,0,1,1.007-3.475,3.154,3.154,0,0,1,2.492-1.174h0a3.154,3.154,0,0,1,2.492,1.174,5.214,5.214,0,0,1,1.007,3.475,5.213,5.213,0,0,1-1.007,3.475" transform="translate(0 0)" fill="#2c2f44"/>
        <path id="Path_12" data-name="Path 12" d="M97.615,43.169a15.49,15.49,0,0,0-.779-5.021l-6.983,6.983,5.72,5.72c.067-.107.133-.215.2-.324a14.253,14.253,0,0,0,1.846-7.358M94.462,46.2a1.22,1.22,0,1,1,1.22,1.22,1.22,1.22,0,0,1-1.22-1.22" transform="translate(-69.047 -29.315)" fill="#2c2f44"/>
        <path id="Path_13" data-name="Path 13" d="M145.723,23.049l-6.9-6.9-.961.961V30.913Z" transform="translate(-105.938 -12.408)" fill="#2c2f44"/>
        <path id="Path_14" data-name="Path 14" d="M148.5,5.81V.825H137.86V2a2.5,2.5,0,0,1,2.687.5l6.9,6.9h0a2.439,2.439,0,0,1,0,3.449l-9.589,9.589v5.416H148.5V16.786q0-2.684,1.414-3.739a7.458,7.458,0,0,1,4.434-1.055h3.02V.633a9.347,9.347,0,0,0-4.889,1.414A12.923,12.923,0,0,0,148.5,5.81m-7.745,19.75-1.725-1.725,7.321-7.321,1.725,1.727Z" transform="translate(-105.938 -0.486)" fill="#2c2f44"/>
        <path id="Path_15" data-name="Path 15" d="M251.87,1.461V15.793a4.406,4.406,0,0,1-1.008,3.044,3.963,3.963,0,0,1-5.536,0,4.336,4.336,0,0,1-1.031-3.044V1.461H233.7V17.135q0,5.32,2.612,8.436a8.961,8.961,0,0,0,7.262,3.116,9.8,9.8,0,0,0,4.961-1.2,9.608,9.608,0,0,0,3.332-3.115v4.122h10.64V1.461Z" transform="translate(-179.587 -1.123)" fill="#2c2f44"/>
      </g>
    </g>
    <path id="Path_16" data-name="Path 16" d="M4.064-25.479v-1.63h.861c.63,0,.9.315.9.815s-.269.815-.9.815Zm3.371-.815c0-1.195-.8-2.093-2.39-2.093H2.48v6.5H4.064v-2.334h.982A2.1,2.1,0,0,0,7.435-26.294ZM21.2-21.885h1.584v-6.5H21.2v2.547H18.735v-2.547H17.151v6.5h1.584v-2.677H21.2Zm18.015-3.27a3.243,3.243,0,0,0-3.325-3.325,3.263,3.263,0,0,0-3.344,3.325,3.271,3.271,0,0,0,3.344,3.334A3.256,3.256,0,0,0,39.214-25.155Zm-5.048,0a1.688,1.688,0,0,1,1.723-1.89,1.691,1.691,0,0,1,1.714,1.89,1.7,1.7,0,0,1-1.714,1.89A1.7,1.7,0,0,1,34.166-25.155Zm19.053-3.233v4.029L50.57-28.387H48.986v6.5H50.57V-25.9l2.649,4.011H54.8v-6.5Zm15.607,0H64.843v6.5h3.983v-1.269h-2.4v-1.426h2.121V-25.8H66.427v-1.315h2.4Zm14.644,4.566c0-2.177-3.214-1.667-3.214-2.8a.576.576,0,0,1,.667-.593.7.7,0,0,1,.75.676h1.714c-.065-1.241-1.019-1.945-2.436-1.945-1.362,0-2.371.685-2.371,1.917-.019,2.306,3.233,1.658,3.233,2.862,0,.38-.3.611-.76.611a.746.746,0,0,1-.806-.741H78.56c.046,1.315,1.139,2.01,2.538,2.01A2.094,2.094,0,0,0,83.469-23.821Z" transform="translate(856.046 691.32)"/>
  </g>
</svg>
