<svg xmlns="http://www.w3.org/2000/svg" xmlns:xlink="http://www.w3.org/1999/xlink" width="73.525" height="33.25" viewBox="0 0 73.525 33.25">
  <defs>
    <clipPath id="clip-path">
      <rect id="Rectangle_4" data-name="Rectangle 4" width="73.525" height="24.569" fill="#fff"/>
    </clipPath>
  </defs>
  <g id="Group_863" data-name="Group 863" transform="translate(-857 -632)">
    <g id="Group_18" data-name="Group 18" transform="translate(857 632)">
      <g id="Group_17" data-name="Group 17" clip-path="url(#clip-path)">
        <path id="Path_11" data-name="Path 11" d="M16.919,12.495l6.76-6.76A11.006,11.006,0,0,0,22.75,4.39L17.89,9.25,16.36,7.719l4.871-4.87A10.96,10.96,0,0,0,19.168,1.49,14,14,0,0,0,12.665,0a14,14,0,0,0-6.5,1.489A10.963,10.963,0,0,0,1.636,5.762,12.639,12.639,0,0,0,0,12.286a12.638,12.638,0,0,0,1.636,6.524A10.964,10.964,0,0,0,6.163,23.08a14,14,0,0,0,6.5,1.488,14,14,0,0,0,6.5-1.488,10.961,10.961,0,0,0,3.019-2.257l-5.269-5.269a2.165,2.165,0,0,1,0-3.059m-2.043,2.872a2.889,2.889,0,0,1-4.441,0,4.7,4.7,0,0,1-.871-3.081A4.623,4.623,0,0,1,10.455,9.2a2.8,2.8,0,0,1,2.21-1.041h0A2.8,2.8,0,0,1,14.875,9.2a4.623,4.623,0,0,1,.893,3.081,4.622,4.622,0,0,1-.893,3.081" transform="translate(0 -0.001)" fill="#fff"/>
        <path id="Path_12" data-name="Path 12" d="M96.736,42.6a13.734,13.734,0,0,0-.691-4.452L89.853,44.34l5.072,5.072c.059-.1.118-.19.174-.287A12.638,12.638,0,0,0,96.736,42.6m-2.8,2.691a1.082,1.082,0,1,1,1.082,1.082,1.082,1.082,0,0,1-1.082-1.082" transform="translate(-71.405 -30.316)" fill="#fff"/>
        <path id="Path_13" data-name="Path 13" d="M144.832,22.267l-6.12-6.12L137.86,17V29.239Z" transform="translate(-109.555 -12.832)" fill="#fff"/>
        <path id="Path_14" data-name="Path 14" d="M147.3,5.223V.8H137.86V1.847a2.214,2.214,0,0,1,2.382.441l6.12,6.121h0a2.163,2.163,0,0,1,0,3.058l-8.5,8.5v4.8H147.3V14.956a3.886,3.886,0,0,1,1.254-3.315,6.613,6.613,0,0,1,3.931-.935h2.677V.633a8.288,8.288,0,0,0-4.335,1.254A11.459,11.459,0,0,0,147.3,5.223m-6.867,17.512L138.9,21.2l6.491-6.491,1.53,1.532Z" transform="translate(-109.555 -0.503)" fill="#fff"/>
        <path id="Path_15" data-name="Path 15" d="M249.811,1.461V14.169a3.906,3.906,0,0,1-.894,2.7,3.514,3.514,0,0,1-4.908,0,3.845,3.845,0,0,1-.914-2.7V1.461H233.7v13.9a11.274,11.274,0,0,0,2.316,7.48,7.945,7.945,0,0,0,6.439,2.763,8.686,8.686,0,0,0,4.4-1.063,8.519,8.519,0,0,0,2.954-2.762v3.655h9.434V1.461Z" transform="translate(-185.72 -1.161)" fill="#fff"/>
      </g>
    </g>
    <path id="Path_16" data-name="Path 16" d="M3.884-25.819v-1.445h.764c.558,0,.8.279.8.723s-.238.723-.8.723Zm2.989-.723c0-1.059-.706-1.856-2.119-1.856H2.48v5.765h1.4V-24.7h.871A1.858,1.858,0,0,0,6.874-26.542Zm12.2,3.909h1.4V-28.4h-1.4v2.258H16.893V-28.4h-1.4v5.765h1.4v-2.373h2.185Zm15.973-2.9A2.875,2.875,0,0,0,32.1-28.48a2.894,2.894,0,0,0-2.965,2.948A2.9,2.9,0,0,0,32.1-22.575,2.887,2.887,0,0,0,35.051-25.532Zm-4.476,0A1.5,1.5,0,0,1,32.1-27.207a1.5,1.5,0,0,1,1.519,1.675A1.507,1.507,0,0,1,32.1-23.856,1.5,1.5,0,0,1,30.575-25.532ZM47.469-28.4v3.572L45.12-28.4h-1.4v5.765h1.4v-3.556l2.349,3.556h1.4V-28.4Zm13.838,0H57.775v5.765h3.531v-1.125H59.18v-1.265H61.06v-1.084H59.18v-1.166h2.127Zm12.984,4.049c0-1.93-2.85-1.478-2.85-2.48a.511.511,0,0,1,.591-.526.624.624,0,0,1,.665.6h1.519c-.057-1.1-.9-1.725-2.16-1.725-1.207,0-2.1.608-2.1,1.7-.016,2.045,2.866,1.47,2.866,2.538,0,.337-.263.542-.673.542a.661.661,0,0,1-.715-.657H69.938c.041,1.166,1.01,1.782,2.25,1.782A1.856,1.856,0,0,0,74.291-24.349Z" transform="translate(855.873 687.825)" fill="#fff"/>
  </g>
</svg>
