<svg xmlns="http://www.w3.org/2000/svg" width="219" height="160.5" viewBox="0 0 219 160.5">
  <g id="Group_515" data-name="Group 515" transform="translate(-87 -135.5)">
    <path id="Exclusion_1" data-name="Exclusion 1" d="M144.3,49.144h0L120.046,9.078h.05A29.347,29.347,0,0,1,115-7.5a29.315,29.315,0,0,1,2.318-11.483,29.4,29.4,0,0,1,6.322-9.377,29.4,29.4,0,0,1,9.377-6.322A29.315,29.315,0,0,1,144.5-37a29.315,29.315,0,0,1,11.483,2.318,29.4,29.4,0,0,1,9.377,6.322,29.4,29.4,0,0,1,6.322,9.377A29.315,29.315,0,0,1,174-7.5a29.34,29.34,0,0,1-5.1,16.578h.076L144.3,49.142ZM144.5-26A18.521,18.521,0,0,0,126-7.5,18.521,18.521,0,0,0,144.5,11,18.521,18.521,0,0,0,163-7.5,18.52,18.52,0,0,0,144.5-26Z" transform="translate(106.5 172.5)" fill="#00a483"/>
    <path id="Path_1294" data-name="Path 1294" d="M152.693,244.175l25.82,65.44L110.4,296.483l-70.559,11.8L-20.7,295.37,8.013,229.485l44.072,9.571,45.185-9.571,15.8,3.339,3.784,7.568-15.581-2.448,11.8,50.972,52.53,10.016L147.8,252.188Z" transform="translate(115 -37)" fill="#4a4a4a"/>
    <path id="Path_1295" data-name="Path 1295" d="M54.533,246.179,43.849,298.931l62.991-9.794-12.02-50.749Z" transform="translate(115 -37)" fill="#fff"/>
    <path id="Path_1296" data-name="Path 1296" d="M48.523,246.624l-10.461,53.42-48.078-10.461,23.149-51.64Z" transform="translate(115 -37)" fill="#fff"/>
    <ellipse id="Ellipse_210" data-name="Ellipse 210" cx="109.5" cy="11.5" rx="109.5" ry="11.5" transform="translate(87 273)" fill="#e5e5e5"/>
  </g>
</svg>
