<svg xmlns="http://www.w3.org/2000/svg" width="26" height="18.2" viewBox="0 0 26 18.2">
  <g id="menu-left" transform="translate(-3 -7.5)">
    <path id="Path_23" data-name="Path 23" d="M3,8.793A1.293,1.293,0,0,1,4.293,7.5H14.706a1.294,1.294,0,1,1,0,2.587H4.293A1.293,1.293,0,0,1,3,8.793Z" transform="translate(0)" fill="#fff"/>
    <path id="Path_24" data-name="Path 24" d="M3,17.8a1.293,1.293,0,0,1,1.293-1.293H27.706a1.294,1.294,0,0,1,0,2.587H4.293A1.293,1.293,0,0,1,3,17.8Z" transform="translate(0 -1.201)" fill="#fff"/>
    <path id="Path_25" data-name="Path 25" d="M4.293,25.515a1.293,1.293,0,1,0,0,2.587H19.906a1.294,1.294,0,0,0,0-2.587Z" transform="translate(0 -2.402)" fill="#fff"/>
  </g>
</svg>
