<svg xmlns="http://www.w3.org/2000/svg" width="50.841" height="50.841" viewBox="0 0 50.841 50.841">
  <g id="patch-check" transform="translate(-0.003 -0.001)">
    <path id="Path_957" data-name="Path 957" d="M32.646,7.986l-2.927-3,2.273-2.219,1.976,2.024L36.8,4.755a9.185,9.185,0,0,1,9.292,9.292l-.031,2.828,2.021,1.976a9.185,9.185,0,0,1,0,13.139l-2.024,1.976.035,2.828A9.185,9.185,0,0,1,36.8,46.086l-2.828-.031-1.976,2.021a9.185,9.185,0,0,1-13.139,0l-1.976-2.024-2.828.035A9.185,9.185,0,0,1,4.759,36.8l.031-2.828L2.769,31.991a9.185,9.185,0,0,1,0-13.139l2.024-1.976-.035-2.828A9.185,9.185,0,0,1,14.05,4.757l2.828.031,1.976-2.021a9.185,9.185,0,0,1,13.139,0L29.719,4.985a6.006,6.006,0,0,0-8.593,0l-2.924,3-4.195-.051a6.006,6.006,0,0,0-6.073,6.076L7.985,18.2l-3,2.927a6.006,6.006,0,0,0,0,8.593l3,2.924-.051,4.195a6.006,6.006,0,0,0,6.076,6.073l4.189-.051,2.927,3a6.006,6.006,0,0,0,8.593,0l2.924-3,4.195.051a6.006,6.006,0,0,0,6.073-6.076l-.051-4.189,3-2.927a6.006,6.006,0,0,0,0-8.593l-3-2.924.051-4.195a6.006,6.006,0,0,0-6.076-6.074Z" transform="translate(0 0)" fill="#00a483"/>
    <path id="Path_958" data-name="Path 958" d="M26.561,13.919a1.43,1.43,0,0,1,0,2.025l-8.579,8.579a1.43,1.43,0,0,1-2.025,0l-4.29-4.29a1.432,1.432,0,1,1,2.025-2.025l3.278,3.279,7.568-7.57a1.43,1.43,0,0,1,2.025,0Z" transform="translate(5.471 6.203)" fill="#00a483"/>
  </g>
</svg>
