<svg xmlns="http://www.w3.org/2000/svg" xmlns:xlink="http://www.w3.org/1999/xlink" viewBox="0,0,256,256" width="96px" height="96px" fill-rule="nonzero"><g fill="#ffffff" fill-rule="nonzero" stroke="none" stroke-width="1" stroke-linecap="butt" stroke-linejoin="miter" stroke-miterlimit="10" stroke-dasharray="" stroke-dashoffset="0" font-family="none" font-weight="none" font-size="none" text-anchor="none" style="mix-blend-mode: normal"><g transform="scale(8,8)"><path d="M5,5v22h22v-22zM7,7h18v18h-11.48633c0.25185,-0.50633 0.47845,-1.02857 0.60156,-1.50391c0.134,-0.514 0.88477,-2.75586 0.88477,-2.75586c0.357,0.683 1.40267,1.25977 2.51367,1.25977c3.308,0 5.48633,-2.89292 5.48633,-6.66992c0,-3.62 -2.95577,-6.33008 -6.75977,-6.33008c-4.732,0 -7.24023,3.17477 -7.24023,6.63477c0,1.607 0.85666,3.60709 2.22266,4.24609c0.21,0.098 0.31819,0.05256 0.36719,-0.14844c0.036,-0.152 0.22173,-0.89623 0.30273,-1.24023c0.027,-0.112 0.01283,-0.2045 -0.07617,-0.3125c-0.451,-0.55 -0.81641,-1.558 -0.81641,-2.5c0,-2.42 1.83017,-4.75977 4.95117,-4.75977c2.692,0 4.58008,1.83594 4.58008,4.46094c0,2.964 -1.29509,4.87109 -3.24609,4.87109c-1.076,0 -2.08017,-0.74194 -1.82617,-1.83594c0.308,-1.304 0.90625,-2.71034 0.90625,-3.65234c0,-2.366 -3.36719,-2.03881 -3.36719,1.11719c0,0.969 0.32227,1.62891 0.32226,1.62891c-1.0628,4.73862 -1.36468,5.77244 -1.27148,7.49023h-5.04883z"></path></g></g></svg>