<svg id="star" xmlns="http://www.w3.org/2000/svg" width="31.174" height="29.227" viewBox="0 0 31.174 29.227">
  <path id="Path_56" data-name="Path 56" d="M5.585,29.083a1.034,1.034,0,0,0,1.454,1.155l8.552-4.4,8.551,4.4A1.034,1.034,0,0,0,25.6,29.084l-1.617-9.216,6.864-6.538a1.083,1.083,0,0,0-.552-1.85l-9.542-1.356-4.257-8.43a1,1,0,0,0-1.806,0l-4.255,8.432L.889,11.482a1.084,1.084,0,0,0-.552,1.85L7.2,19.87,5.585,29.086Zm9.556-5.391L7.96,27.381l1.352-7.709a1.1,1.1,0,0,0-.318-.984l-5.661-5.4,7.894-1.122a1.023,1.023,0,0,0,.765-.561l3.6-7.126,3.6,7.126a1.023,1.023,0,0,0,.765.561l7.894,1.12-5.661,5.4a1.1,1.1,0,0,0-.318.986l1.352,7.709-7.181-3.69a.98.98,0,0,0-.9,0Z" transform="translate(-0.003 -1.122)" fill="#c7c7c7"/>
</svg>
