<?xml version="1.0" encoding="iso-8859-1"?>
<!-- Generator: Adobe Illustrator 18.1.1, SVG Export Plug-In . SVG Version: 6.00 Build 0)  -->
<svg version="1.1" id="Capa_1" xmlns="http://www.w3.org/2000/svg" xmlns:xlink="http://www.w3.org/1999/xlink" x="0px" y="0px"
	 viewBox="0 0 270 270" style="enable-background:new 0 0 270 270;" xml:space="preserve">
<g>
	<path id="path23380" d="M110.133,0c-28.29,0-53.941,5.669-72.947,15.172S5.133,38.491,5.133,55v160
		c0,16.51,13.046,30.325,32.053,39.828S81.843,270,110.133,270c24.831,0,47.613-4.391,65.664-11.877
		c9.378,7.426,21.213,11.877,34.07,11.877c30.316,0,55-24.684,55-55c0-28.54-21.878-52.08-49.734-54.742V55
		c0-16.509-13.048-30.325-32.055-39.828S138.423,0,110.133,0z M110.133,10c26.939,0,51.288,5.524,68.475,14.117
		S205.133,43.895,205.133,55s-9.339,22.29-26.525,30.883S137.071,100,110.133,100s-51.288-5.524-68.475-14.117
		S15.133,66.105,15.133,55c0-11.105,9.339-22.29,26.525-30.883S83.194,10,110.133,10z M110.133,17.5
		c-25.923,0-49.302,5.415-65.121,13.324C29.173,38.744,22.633,47.798,22.633,55c-0.02,1.381,1.084,2.516,2.465,2.535
		c1.381,0.02,2.516-1.084,2.535-2.465c0-0.024,0-0.047,0-0.071c0-3.795,4.698-12.246,19.615-19.705
		C62.11,27.864,84.913,22.5,110.133,22.5c1.381,0.02,2.516-1.084,2.535-2.465c0.02-1.381-1.084-2.516-2.465-2.535
		C110.18,17.5,110.156,17.5,110.133,17.5z M15.133,78.807c5.559,6.176,13.152,11.571,22.053,16.021
		C56.192,104.331,81.843,110,110.133,110s53.939-5.669,72.945-15.172c8.901-4.45,16.495-9.846,22.055-16.021v29.527
		c0,11.105-9.339,22.29-26.525,30.883c-17.186,8.593-41.536,14.115-68.475,14.115s-51.288-5.522-68.475-14.115
		c-17.186-8.593-26.525-19.778-26.525-30.883V78.807z M15.133,132.139c5.559,6.175,13.152,11.571,22.053,16.021
		c19.006,9.503,44.658,15.172,72.947,15.172s53.939-5.669,72.945-15.172c8.901-4.45,16.495-9.846,22.055-16.021v28.08
		c-23.276,1.998-42.462,18.555-48.373,40.502c-13.764,3.769-29.675,5.945-46.627,5.945c-26.939,0-51.288-5.524-68.475-14.117
		c-17.187-8.593-26.525-19.777-26.525-30.883V132.139z M209.867,170c24.912,0,45,20.088,45,45s-20.088,45-45,45s-45-20.088-45-45
		S184.955,170,209.867,170z M205.232,174.451c-0.226-0.006-0.451,0.018-0.67,0.072c-18.963,4.434-33.259,20.092-35.955,39.379
		c-0.219,1.363,0.709,2.646,2.072,2.865s2.646-0.709,2.865-2.072c0.005-0.033,0.01-0.066,0.014-0.1
		c2.412-17.257,15.176-31.236,32.143-35.203c1.349-0.296,2.202-1.63,1.906-2.978C207.361,175.292,206.381,174.482,205.232,174.451z
		 M207.705,185v0.002c-0.544,0-1.077,0.148-1.543,0.428c-0.593,0.355-1.045,0.905-1.279,1.555l-1.67,4.641
		c-1.806,0.514-3.529,1.229-5.17,2.141l-4.459-2.1c-1.146-0.54-2.507-0.303-3.402,0.594l-3.055,3.059
		c-0.894,0.894-1.131,2.252-0.594,3.396l2.098,4.449c-0.918,1.646-1.637,3.376-2.154,5.188l-4.623,1.664
		c-1.191,0.428-1.986,1.557-1.986,2.822v4.326c0.001,1.265,0.796,2.393,1.986,2.82l4.637,1.668c0.514,1.807,1.23,3.533,2.143,5.174
		l-2.1,4.457c-0.54,1.146-0.303,2.507,0.594,3.402l3.055,3.059c0.896,0.895,2.257,1.131,3.402,0.59l4.449-2.096
		c1.644,0.917,3.375,1.632,5.186,2.148l1.664,4.629c0.428,1.19,1.557,1.984,2.822,1.984h4.326c1.265,0,2.394-0.794,2.822-1.984
		l1.668-4.646c1.805-0.512,3.53-1.223,5.17-2.135l4.461,2.1c1.144,0.54,2.505,0.304,3.4-0.59l3.057-3.059
		c0.896-0.896,1.132-2.257,0.592-3.402l-2.098-4.447c0.918-1.646,1.636-3.377,2.152-5.189l4.627-1.662
		c1.19-0.428,1.983-1.556,1.984-2.82v-4.326c0-1.265-0.794-2.394-1.984-2.822l-4.646-1.672c-0.514-1.805-1.225-3.53-2.137-5.17
		l2.102-4.455c0.542-1.146,0.305-2.508-0.592-3.404l-3.057-3.055c-0.895-0.895-2.255-1.133-3.4-0.594l-4.453,2.098
		c-1.644-0.918-3.375-1.636-5.186-2.152l-1.66-4.627c-0.428-1.19-1.557-1.984-2.822-1.984H207.705z M15.133,185.473
		c5.559,6.176,13.152,11.571,22.053,16.021c19.006,9.503,44.658,15.172,72.947,15.172c16.051,0,31.242-1.852,44.857-5.168
		c-0.073,1.159-0.123,2.324-0.123,3.502c0,13.512,4.912,25.897,13.031,35.484c-15.967,5.917-36.015,9.516-57.766,9.516
		c-26.939,0-51.288-5.524-68.475-14.117S15.133,226.105,15.133,215V185.473z M209.867,203.002c6.627,0,12,5.373,12,12
		s-5.373,12-12,12s-12-5.373-12-12S203.24,203.002,209.867,203.002z"/>
</g>
<g>
</g>
<g>
</g>
<g>
</g>
<g>
</g>
<g>
</g>
<g>
</g>
<g>
</g>
<g>
</g>
<g>
</g>
<g>
</g>
<g>
</g>
<g>
</g>
<g>
</g>
<g>
</g>
<g>
</g>
</svg>
