<?xml version="1.0" standalone="no"?>
<!DOCTYPE svg PUBLIC "-//W3C//DTD SVG 20010904//EN"
 "http://www.w3.org/TR/2001/REC-SVG-20010904/DTD/svg10.dtd">
<svg version="1.0" xmlns="http://www.w3.org/2000/svg"
 width="42.000000pt" height="60.000000pt" viewBox="0 0 42.000000 60.000000"
 preserveAspectRatio="xMidYMid meet">

<g transform="translate(0.000000,60.000000) scale(0.100000,-0.100000)"
fill="#000000" stroke="none">
<path d="M22 577 c-21 -23 -22 -30 -22 -278 0 -325 -18 -299 206 -299 153 0
160 1 187 24 l27 23 0 253 0 253 -27 23 c-27 23 -34 24 -189 24 -155 0 -161
-1 -182 -23z m358 -26 c6 -12 10 -111 10 -251 0 -140 -4 -239 -10 -251 -10
-18 -23 -19 -168 -19 -110 0 -162 4 -170 12 -17 17 -17 499 0 516 8 8 60 12
170 12 145 0 158 -1 168 -19z"/>
<path d="M195 358 c-10 -24 -1 -123 10 -121 14 4 19 113 6 126 -7 7 -12 5 -16
-5z"/>
<path d="M195 130 c-3 -5 1 -10 9 -10 9 0 16 5 16 10 0 6 -4 10 -9 10 -6 0
-13 -4 -16 -10z"/>
</g>
</svg>
