<?xml version="1.0" standalone="no"?>
<!DOCTYPE svg PUBLIC "-//W3C//DTD SVG 20010904//EN"
 "http://www.w3.org/TR/2001/REC-SVG-20010904/DTD/svg10.dtd">
<svg version="1.0" xmlns="http://www.w3.org/2000/svg"
 width="69.000000pt" height="72.000000pt" viewBox="0 0 69.000000 72.000000"
 preserveAspectRatio="xMidYMid meet">

<g transform="translate(0.000000,72.000000) scale(0.100000,-0.100000)"
fill="#000000" stroke="none">
<path d="M589 624 c-22 -22 -30 -24 -47 -15 -13 7 -87 11 -196 11 l-175 0 -20
-26 c-20 -25 -21 -39 -21 -242 l0 -216 -31 -32 c-38 -39 -30 -68 8 -32 22 21
26 21 36 7 25 -34 55 -39 215 -39 146 0 161 2 186 21 l26 20 0 243 0 243 26
24 c14 13 30 32 35 42 15 27 -12 21 -42 -9z m-59 -47 c0 -12 -65 -83 -301
-333 -32 -34 -61 -59 -64 -56 -3 3 -5 89 -5 192 0 131 4 190 12 198 18 18 358
17 358 -1z m10 -271 c0 -170 -3 -216 -14 -225 -9 -8 -66 -11 -181 -9 -147 3
-169 5 -179 20 -8 14 -7 24 4 42 18 29 352 384 363 385 4 1 7 -95 7 -213z"/>
<path d="M340 170 c0 -5 5 -10 10 -10 6 0 10 5 10 10 0 6 -4 10 -10 10 -5 0
-10 -4 -10 -10z"/>
</g>
</svg>
