<?xml version="1.0" standalone="no"?>
<!DOCTYPE svg PUBLIC "-//W3C//DTD SVG 20010904//EN"
 "http://www.w3.org/TR/2001/REC-SVG-20010904/DTD/svg10.dtd">
<svg version="1.0" xmlns="http://www.w3.org/2000/svg"
 width="60.000000pt" height="60.000000pt" viewBox="0 0 60.000000 60.000000"
 preserveAspectRatio="xMidYMid meet">

<g transform="translate(0.000000,60.000000) scale(0.100000,-0.100000)"
fill="#000000" stroke="none">
<path d="M173 570 c-153 -75 -215 -245 -143 -395 74 -155 244 -217 395 -145
155 74 217 244 145 395 -74 155 -246 218 -397 145z m222 -17 c31 -11 67 -35
95 -64 107 -108 106 -272 -1 -378 -106 -107 -270 -108 -378 -1 -107 105 -108
273 -1 380 76 76 181 99 285 63z"/>
<path d="M290 408 c0 -13 -3 -33 -6 -46 l-6 -22 -24 25 c-24 26 -44 33 -44 15
0 -6 11 -21 25 -34 l25 -24 -22 -6 c-13 -3 -33 -6 -45 -6 -13 0 -23 -4 -23
-10 0 -5 13 -10 29 -10 16 0 37 -3 45 -6 14 -5 13 -10 -9 -30 -26 -24 -33 -44
-15 -44 6 0 21 11 34 25 l24 25 6 -22 c3 -13 6 -33 6 -45 0 -13 5 -23 10 -23
6 0 10 13 10 29 0 16 3 37 6 45 5 14 10 13 30 -9 13 -14 28 -25 34 -25 18 0
11 20 -15 44 -22 20 -23 25 -9 30 8 3 29 6 45 6 16 0 29 5 29 10 0 6 -10 10
-22 10 -13 0 -33 3 -46 6 l-22 6 25 24 c14 13 25 28 25 34 0 18 -20 11 -44
-15 -20 -22 -25 -23 -30 -9 -3 8 -6 29 -6 45 0 16 -4 29 -10 29 -5 0 -10 -10
-10 -22z"/>
</g>
</svg>
