<?xml version="1.0" encoding="utf-8"?>
<!-- Generator: Adobe Illustrator 26.0.0, SVG Export Plug-In . SVG Version: 6.00 Build 0)  -->
<svg version="1.1" id="Layer_1" xmlns="http://www.w3.org/2000/svg" xmlns:xlink="http://www.w3.org/1999/xlink" x="0px" y="0px"
	 viewBox="0 0 1000 1000" style="enable-background:new 0 0 1000 1000;" xml:space="preserve">
<style type="text/css">
	.st0{fill:none;stroke:#000000;stroke-width:3;stroke-linecap:round;stroke-linejoin:round;stroke-miterlimit:10;}
	.st1{fill:none;stroke:#000000;stroke-width:2.6368;stroke-linecap:round;stroke-linejoin:round;}
	.st2{fill:none;stroke:#000000;stroke-width:2.3313;stroke-linecap:round;stroke-linejoin:round;}
	.st3{fill:none;stroke:#9B5454;stroke-width:2.3232;stroke-linecap:round;stroke-linejoin:round;}
	.st4{font-family:'MyriadPro-Regular';}
	.st5{font-size:53.5338px;}
</style>
<g>
	<line class="st0" x1="-176.4" y1="526.3" x2="-205.2" y2="526.3"/>
	<path class="st0" d="M-269.4,526.3h157.2c4.4,0,8,3.6,8,8v4.8h-173.2v-4.7C-277.4,529.9-273.8,526.3-269.4,526.3z"/>
	<g>
		<g>
			<g>
				<path class="st0" d="M-168,427.7v92.7c0,3.3-2.4,5.9-5.3,5.9h-45.4c-2.9,0-5.3-2.7-5.3-5.9v-92.7c0-3.3,2.4-5.9,5.3-5.9h45.4
					c1.5,0,2.8,0.7,3.8,1.7C-168.6,424.6-168,426-168,427.7z"/>
				<line class="st0" x1="-224" y1="435.6" x2="-168" y2="435.6"/>
				<line class="st0" x1="-203.6" y1="428.7" x2="-193.9" y2="428.7"/>
				<line class="st0" x1="-189" y1="428.7" x2="-188.6" y2="428.7"/>
				<line class="st0" x1="-224" y1="512" x2="-168" y2="512"/>
				<line class="st0" x1="-200.6" y1="519.3" x2="-191.6" y2="519.3"/>
			</g>
			<g>
				<path class="st0" d="M-151.8,440.7h25.3l0,0c2.4,0,4.3,2.2,4.3,4.9v75.9c0,2.7-2,4.9-4.3,4.9h-37.2c-2.4,0-4.3-2.2-4.3-4.9
					v-75.9c0-2.7,2-4.9,4.3-4.9L-151.8,440.7L-151.8,440.7z"/>
				<line class="st0" x1="-168" y1="452" x2="-122.1" y2="452"/>
				<line class="st0" x1="-151.3" y1="446.4" x2="-143.3" y2="446.4"/>
				<line class="st0" x1="-139.4" y1="446.4" x2="-139" y2="446.4"/>
				<line class="st0" x1="-168" y1="514.6" x2="-122.1" y2="514.6"/>
				<line class="st0" x1="-148.8" y1="520.6" x2="-141.4" y2="520.6"/>
			</g>
			<g>
				<path class="st0" d="M-224,463.8v58.8c0,2.1-1.5,3.8-3.4,3.8h-28.8c-1.9,0-3.4-1.7-3.4-3.8v-58.8c0-2.1,1.5-3.8,3.4-3.8h28.8
					c0.9,0,1.8,0.4,2.4,1.1C-224.4,461.8-224,462.7-224,463.8z"/>
				<line class="st0" x1="-259.5" y1="468.8" x2="-224" y2="468.8"/>
				<line class="st0" x1="-246.6" y1="464.4" x2="-240.4" y2="464.4"/>
				<line class="st0" x1="-237.3" y1="464.4" x2="-237.1" y2="464.4"/>
				<line class="st0" x1="-259.5" y1="517.3" x2="-224" y2="517.3"/>
				<line class="st0" x1="-244.6" y1="521.9" x2="-238.9" y2="521.9"/>
			</g>
		</g>
		<g>
			<path class="st0" d="M-205.2,409.4c-0.1,1.1-0.2,2.4,0.2,3.4c0.4,1.1,1.5,1.9,2.7,2c0.9,0.1,1.9-0.2,2.8-0.6
				c0.9-0.3,1.8-0.7,2.7-1c0.8-0.3,1.2-0.1,1.9,0.1c0.6,0.2,1.1,0.4,1.7,0.6c0.8,0.3,1.5,0.6,2.3,0.8c0,0,1.8,0.5,3.1-0.9
				s1-2.7,1-2.9c0-0.2-0.1-4.7-0.1-4.7s2-2.6,3-3.9s0.8-2.4,0.8-2.6c-0.4-2.4-2.6-2.8-2.6-2.8l-4.7-1.5c0,0-1.7-2.3-2.9-4
				s-2.8-1.5-2.8-1.5s-1.6-0.2-2.9,1.6c-0.8,1.2-1.6,2.5-2.6,3.6c-1,1.1-3.2,1.1-4.6,1.6c-1.4,0.5-2.8,1.7-2.9,3.2
				c0,1,0.5,1.9,1.1,2.7c0.6,0.8,1.4,1.5,1.9,2.3"/>
			<g>
				<line class="st0" x1="-176.5" y1="391.2" x2="-173.7" y2="389.9"/>
				<line class="st0" x1="-176.5" y1="411" x2="-173.7" y2="412.3"/>
				<line class="st0" x1="-173.8" y1="401.1" x2="-170.7" y2="401.1"/>
			</g>
			<g>
				<line class="st0" x1="-215.5" y1="391.2" x2="-218.3" y2="389.9"/>
				<line class="st0" x1="-215.5" y1="411" x2="-218.3" y2="412.3"/>
				<line class="st0" x1="-218.2" y1="401.1" x2="-221.2" y2="401.1"/>
			</g>
		</g>
	</g>
</g>
<path d="M278.9,241.5h-105c-12.1,0-21.9,9.8-21.9,21.9v218.9c0,12.1,9.8,21.9,21.9,21.9h105c12.1,0,21.9-9.8,21.9-21.9v-52.5h30.6
	c2.4,0,4.4-2,4.4-4.4v-87.5c0-1.3-0.6-2.6-1.6-3.4l-21.9-17.5c-0.8-0.6-1.7-1-2.7-1h-8.8v-52.5C300.8,251.3,291,241.5,278.9,241.5z
	 M173.9,250.3h105c7.2,0,13.1,5.9,13.1,13.1v13.1H160.8v-13.1C160.8,256.1,166.6,250.3,173.9,250.3z M278.9,495.4h-105
	c-7.2,0-13.1-5.9-13.1-13.1v-21.9h131.3v21.9C292.1,489.5,286.2,495.4,278.9,495.4z M292.1,451.6H160.8V285.3h131.3v30.6h-8.8
	c-1,0-2,0.3-2.7,1l-21.9,17.5c-1,0.8-1.6,2.1-1.6,3.4v87.5c0,2.4,2,4.4,4.4,4.4h30.6V451.6z M327.1,339.9V421h-61.3v-81.1l19-15.2
	H308L327.1,339.9z"/>
<circle cx="200.1" cy="263.4" r="4.4"/>
<path d="M222,267.8h30.6c2.4,0,4.4-2,4.4-4.4s-2-4.4-4.4-4.4H222c-2.4,0-4.4,2-4.4,4.4S219.6,267.8,222,267.8z"/>
<path d="M283.3,372.8c0,7.2,5.9,13.1,13.1,13.1c2.4,0,4.4,2,4.4,4.4s-2,4.4-4.4,4.4s-4.4-2-4.4-4.4s-2-4.4-4.4-4.4s-4.4,2-4.4,4.4
	c0,5.6,3.5,10.5,8.8,12.4v5.1c0,2.4,2,4.4,4.4,4.4s4.4-2,4.4-4.4v-5.1c6.8-2.4,10.4-9.9,8-16.8c-1.9-5.2-6.8-8.7-12.4-8.7
	c-2.4,0-4.4-2-4.4-4.4s2-4.4,4.4-4.4s4.4,2,4.4,4.4s2,4.4,4.4,4.4s4.4-2,4.4-4.4c0-5.6-3.5-10.5-8.8-12.4v-5.1c0-2.4-2-4.4-4.4-4.4
	s-4.4,2-4.4,4.4v5.1C286.8,362.3,283.3,367.2,283.3,372.8z"/>
<circle cx="296.4" cy="337.8" r="4.4"/>
<path d="M187,372.8c1.2,0,2.3-0.5,3.1-1.3l26.3-26.3c1.7-1.7,1.7-4.5,0-6.2c-1.7-1.7-4.5-1.7-6.2,0l-26.3,26.3
	c-1.7,1.7-1.7,4.5,0,6.2C184.7,372.3,185.9,372.8,187,372.8z"/>
<path d="M240.8,369.7L214.6,396c-1.7,1.7-1.7,4.5,0,6.2c1.7,1.7,4.5,1.7,6.2,0l26.3-26.3c1.7-1.7,1.7-4.5,0-6.2
	C245.3,368,242.5,368,240.8,369.7L240.8,369.7z"/>
<path d="M240.8,339.1l-61.3,61.3c-1.7,1.7-1.7,4.5,0,6.2c1.7,1.7,4.5,1.7,6.2,0l61.3-61.3c1.7-1.7,1.7-4.5,0-6.2
	C245.3,337.4,242.5,337.4,240.8,339.1L240.8,339.1z"/>
<g>
	<path class="st1" d="M549.1,319v-26.1v-14.4c0-5.9-4.4-10.7-9.8-10.7h-56.7h-26.5c-5.4,0-9.8,4.8-9.8,10.7v14.4v137.7V446
		c0,0,0,0,0,0c0,5.9,4.4,10.7,9.8,10.7h83.2h0c5.4,0,9.7-4.8,9.7-10.7v-15.4v-20.4"/>
	<line class="st1" x1="446.3" y1="292.9" x2="549.1" y2="292.9"/>
	<line class="st1" x1="483.9" y1="279.8" x2="501.4" y2="279.8"/>
	<line class="st1" x1="510.5" y1="279.8" x2="511.5" y2="279.8"/>
	<line class="st1" x1="446.3" y1="430.5" x2="549.1" y2="430.5"/>
	<line class="st1" x1="489.5" y1="443.6" x2="506" y2="443.6"/>
</g>
<polygon class="st2" points="584.8,334.2 584.8,410.1 523.4,410.1 523.4,334.2 542.9,319 565.3,319 "/>
<circle class="st1" cx="554.1" cy="331" r="4"/>
<circle class="st3" cx="296.2" cy="372.8" r="9.8"/>
<path class="st3" d="M300.6,381.6c3.3,1.6,5.5,4.9,5.5,8.8c0,5.4-4.4,9.8-9.8,9.8c-5.4,0-9.8-4.4-9.8-9.8c0-3.9,2.2-7.2,5.5-8.8"/>
<text transform="matrix(1 0 0 1 542.0401 390.9652)" class="st4 st5">$</text>
</svg>
