<svg xmlns="http://www.w3.org/2000/svg" width="52.978" height="45.823" viewBox="0 0 52.978 45.823">
  <g id="best-selling-mobiles" transform="translate(0.35 0.432)">
    <line id="Line_1" data-name="Line 1" x1="8.658" transform="translate(21.81 41.179)" fill="none" stroke="#6b6b6b" stroke-linecap="round" stroke-linejoin="round" stroke-miterlimit="10" stroke-width="0.7"/>
    <path id="Path_6" data-name="Path 6" d="M415.543,562.1h47.421a2.42,2.42,0,0,1,2.413,2.413v1.448H413.1v-1.418A2.433,2.433,0,0,1,415.543,562.1Z" transform="translate(-413.1 -520.921)" fill="none" stroke="#6b6b6b" stroke-linecap="round" stroke-linejoin="round" stroke-miterlimit="10" stroke-width="0.7"/>
    <g id="Group_22" data-name="Group 22" transform="translate(5.4 0)">
      <g id="Group_18" data-name="Group 18" transform="translate(0 9.655)">
        <g id="Group_15" data-name="Group 15" transform="translate(10.739)">
          <path id="Path_7" data-name="Path 7" d="M483.493,459.38v27.964a1.694,1.694,0,0,1-1.6,1.78H468.2a1.713,1.713,0,0,1-1.6-1.78V459.38a1.694,1.694,0,0,1,1.6-1.78h13.7a1.623,1.623,0,0,1,1.146.513A1.962,1.962,0,0,1,483.493,459.38Z" transform="translate(-466.6 -457.6)" fill="none" stroke="#6b6b6b" stroke-linecap="round" stroke-linejoin="round" stroke-miterlimit="10" stroke-width="0.7"/>
          <line id="Line_2" data-name="Line 2" x2="16.893" transform="translate(0 4.163)" fill="none" stroke="#6b6b6b" stroke-linecap="round" stroke-linejoin="round" stroke-miterlimit="10" stroke-width="0.7"/>
          <line id="Line_3" data-name="Line 3" x2="2.956" transform="translate(6.124 2.081)" fill="none" stroke="#6b6b6b" stroke-linecap="round" stroke-linejoin="round" stroke-miterlimit="10" stroke-width="0.7"/>
          <line id="Line_4" data-name="Line 4" x2="0.121" transform="translate(10.528 2.081)" fill="none" stroke="#6b6b6b" stroke-linecap="round" stroke-linejoin="round" stroke-miterlimit="10" stroke-width="0.7"/>
          <line id="Line_5" data-name="Line 5" x2="16.893" transform="translate(0 27.21)" fill="none" stroke="#6b6b6b" stroke-linecap="round" stroke-linejoin="round" stroke-miterlimit="10" stroke-width="0.7"/>
          <line id="Line_6" data-name="Line 6" x2="2.715" transform="translate(7.059 29.412)" fill="none" stroke="#6b6b6b" stroke-linecap="round" stroke-linejoin="round" stroke-miterlimit="10" stroke-width="0.7"/>
        </g>
        <g id="Group_16" data-name="Group 16" transform="translate(27.602 5.701)">
          <path id="Path_8" data-name="Path 8" d="M527.387,476.5h7.632a1.393,1.393,0,0,1,1.3,1.478v22.9a1.413,1.413,0,0,1-1.3,1.478H523.8a1.393,1.393,0,0,1-1.3-1.478v-22.9a1.413,1.413,0,0,1,1.3-1.478Z" transform="translate(-522.5 -476.5)" fill="none" stroke="#6b6b6b" stroke-linecap="round" stroke-linejoin="round" stroke-miterlimit="10" stroke-width="0.7"/>
          <line id="Line_7" data-name="Line 7" x2="13.816" transform="translate(0.03 3.409)" fill="none" stroke="#6b6b6b" stroke-linecap="round" stroke-linejoin="round" stroke-miterlimit="10" stroke-width="0.7"/>
          <line id="Line_8" data-name="Line 8" x2="2.443" transform="translate(5.038 1.719)" fill="none" stroke="#6b6b6b" stroke-linecap="round" stroke-linejoin="round" stroke-miterlimit="10" stroke-width="0.7"/>
          <line id="Line_9" data-name="Line 9" x2="0.09" transform="translate(8.658 1.719)" fill="none" stroke="#6b6b6b" stroke-linecap="round" stroke-linejoin="round" stroke-miterlimit="10" stroke-width="0.7"/>
          <line id="Line_10" data-name="Line 10" x2="13.816" transform="translate(0.03 22.293)" fill="none" stroke="#6b6b6b" stroke-linecap="round" stroke-linejoin="round" stroke-miterlimit="10" stroke-width="0.7"/>
          <line id="Line_11" data-name="Line 11" x2="2.232" transform="translate(5.792 24.103)" fill="none" stroke="#6b6b6b" stroke-linecap="round" stroke-linejoin="round" stroke-miterlimit="10" stroke-width="0.7"/>
        </g>
        <g id="Group_17" data-name="Group 17" transform="translate(0 11.523)">
          <path id="Path_9" data-name="Path 9" d="M441.739,496.946v17.738a1.086,1.086,0,0,1-1.026,1.146h-8.688A1.086,1.086,0,0,1,431,514.684V496.946a1.086,1.086,0,0,1,1.026-1.146h8.688a.963.963,0,0,1,.724.332A1.225,1.225,0,0,1,441.739,496.946Z" transform="translate(-431 -495.8)" fill="none" stroke="#6b6b6b" stroke-linecap="round" stroke-linejoin="round" stroke-miterlimit="10" stroke-width="0.7"/>
          <line id="Line_12" data-name="Line 12" x2="10.709" transform="translate(0.03 2.655)" fill="none" stroke="#6b6b6b" stroke-linecap="round" stroke-linejoin="round" stroke-miterlimit="10" stroke-width="0.7"/>
          <line id="Line_13" data-name="Line 13" x2="1.87" transform="translate(3.922 1.327)" fill="none" stroke="#6b6b6b" stroke-linecap="round" stroke-linejoin="round" stroke-miterlimit="10" stroke-width="0.7"/>
          <line id="Line_14" data-name="Line 14" x2="0.09" transform="translate(6.697 1.327)" fill="none" stroke="#6b6b6b" stroke-linecap="round" stroke-linejoin="round" stroke-miterlimit="10" stroke-width="0.7"/>
          <line id="Line_15" data-name="Line 15" x2="10.709" transform="translate(0.03 17.285)" fill="none" stroke="#6b6b6b" stroke-linecap="round" stroke-linejoin="round" stroke-miterlimit="10" stroke-width="0.7"/>
          <line id="Line_16" data-name="Line 16" x2="1.719" transform="translate(4.495 18.673)" fill="none" stroke="#6b6b6b" stroke-linecap="round" stroke-linejoin="round" stroke-miterlimit="10" stroke-width="0.7"/>
        </g>
      </g>
      <g id="Group_21" data-name="Group 21" transform="translate(11.554)">
        <path id="Path_10" data-name="Path 10" d="M482.677,431.477a2.337,2.337,0,0,0,.06,1.026.959.959,0,0,0,.814.6,1.714,1.714,0,0,0,.845-.181c.272-.091.543-.211.815-.3a.749.749,0,0,1,.573.03c.181.06.332.121.513.181a6.317,6.317,0,0,0,.694.241.986.986,0,0,0,.935-.272,1.028,1.028,0,0,0,.3-.875c0-.06-.03-1.418-.03-1.418l.905-1.177a1.062,1.062,0,0,0,.241-.784,1.023,1.023,0,0,0-.784-.845l-1.418-.453s-.513-.694-.875-1.207a.955.955,0,0,0-.845-.452,1,1,0,0,0-.875.483,9.007,9.007,0,0,1-.784,1.086c-.3.332-.965.332-1.388.483a1.239,1.239,0,0,0-.875.965,1.39,1.39,0,0,0,.332.815c.181.241.422.452.573.694" transform="translate(-477.82 -425.593)" fill="none" stroke="#6b6b6b" stroke-linecap="round" stroke-linejoin="round" stroke-miterlimit="10" stroke-width="0.7"/>
        <g id="Group_19" data-name="Group 19" transform="translate(13.484 0.032)">
          <line id="Line_17" data-name="Line 17" y1="0.392" x2="0.875" fill="none" stroke="#6b6b6b" stroke-linecap="round" stroke-linejoin="round" stroke-miterlimit="10" stroke-width="0.7"/>
          <line id="Line_18" data-name="Line 18" x2="0.875" y2="0.392" transform="translate(0 6.365)" fill="none" stroke="#6b6b6b" stroke-linecap="round" stroke-linejoin="round" stroke-miterlimit="10" stroke-width="0.7"/>
          <line id="Line_19" data-name="Line 19" x2="0.905" transform="translate(0.845 3.379)" fill="none" stroke="#6b6b6b" stroke-linecap="round" stroke-linejoin="round" stroke-miterlimit="10" stroke-width="0.7"/>
        </g>
        <g id="Group_20" data-name="Group 20" transform="translate(0 0.032)">
          <line id="Line_20" data-name="Line 20" x1="0.845" y1="0.392" transform="translate(0.905)" fill="none" stroke="#6b6b6b" stroke-linecap="round" stroke-linejoin="round" stroke-miterlimit="10" stroke-width="0.7"/>
          <line id="Line_21" data-name="Line 21" x1="0.845" y2="0.392" transform="translate(0.905 6.365)" fill="none" stroke="#6b6b6b" stroke-linecap="round" stroke-linejoin="round" stroke-miterlimit="10" stroke-width="0.7"/>
          <line id="Line_22" data-name="Line 22" x1="0.935" transform="translate(0 3.379)" fill="none" stroke="#6b6b6b" stroke-linecap="round" stroke-linejoin="round" stroke-miterlimit="10" stroke-width="0.7"/>
        </g>
      </g>
    </g>
  </g>
</svg>
