<svg xmlns="http://www.w3.org/2000/svg" width="28.315" height="29.732" viewBox="0 0 28.315 29.732">
  <g id="calendar" transform="translate(0.578)">
    <path id="Path_110" data-name="Path 110" d="M102.059,262.64h9.805a.633.633,0,0,0,0-1.265h-9.805a.633.633,0,1,0,0,1.265Zm0,0" transform="translate(-96.842 -248.148)" fill="#878787"/>
    <path id="Path_111" data-name="Path 111" d="M107.929,342.625h-5.87a.633.633,0,0,0,0,1.265h5.87a.633.633,0,0,0,0-1.265Zm0,0" transform="translate(-96.842 -325.286)" fill="#878787"/>
    <path id="Path_112" data-name="Path 112" d="M22.069,15.935V5a3.164,3.164,0,0,0-3.163-3.163H16.312V.633a.633.633,0,1,0-1.265,0V1.841h-8.6V.633a.633.633,0,1,0-1.265,0V1.841H2.585A3.164,3.164,0,0,0-.578,5V22.141A3.164,3.164,0,0,0,2.585,25.3H14.294a6.959,6.959,0,1,0,7.774-9.369ZM2.591,3.106H5.185V4.314a.633.633,0,1,0,1.265,0V3.106h8.6V4.314a.633.633,0,1,0,1.265,0V3.106h2.594A1.9,1.9,0,0,1,20.81,5V6.535H.694V5A1.9,1.9,0,0,1,2.591,3.106Zm0,20.932a1.9,1.9,0,0,1-1.9-1.9V7.794H20.8v8.021h-.019a6.969,6.969,0,0,0-6.845,8.224Zm18.193,4.428a5.693,5.693,0,1,1,5.693-5.693A5.693,5.693,0,0,1,20.785,28.467Zm0,0" fill="#878787"/>
    <path id="Path_113" data-name="Path 113" d="M352.3,401.814l-3.757,3.587-1.942-1.948a.631.631,0,0,0-.892.892l2.385,2.385a.622.622,0,0,0,.449.183.612.612,0,0,0,.436-.177l4.2-4.017a.629.629,0,0,0,.019-.892A.643.643,0,0,0,352.3,401.814Zm0,0" transform="translate(-328.585 -381.312)" fill="#878787"/>
  </g>
</svg>
