<svg id="Icons" enable-background="new 0 0 128 128" height="512" viewBox="0 0 128 128" width="512" xmlns="http://www.w3.org/2000/svg"><path id="Check_Mark" d="m64 128c-35.289 0-64-28.711-64-64s28.711-64 64-64 64 28.711 64 64-28.711 64-64 64zm0-120c-30.879 0-56 25.121-56 56s25.121 56 56 56 56-25.121 56-56-25.121-56-56-56zm-9.172 78.828 40-40c1.563-1.563 1.563-4.094 0-5.656s-4.094-1.563-5.656 0l-37.172 37.172-13.172-13.172c-1.563-1.563-4.094-1.563-5.656 0s-1.563 4.094 0 5.656l16 16c.781.781 1.805 1.172 2.828 1.172s2.047-.391 2.828-1.172z"/></svg>