<?xml version="1.0" encoding="UTF-8"?>
<svg xmlns="http://www.w3.org/2000/svg" id="Layer_1" data-name="Layer 1" viewBox="0 0 512 512" width="512" height="512"><path d="M489.417,279v-1.182c0-62.1-24.349-120.646-68.56-164.857S318.1,44.4,256,44.4,135.354,68.749,91.143,112.96s-68.56,102.758-68.56,164.856V279A27.578,27.578,0,0,0,0,306.081V397.1a27.571,27.571,0,0,0,27.538,27.539H44.556v3.934A39.075,39.075,0,0,0,83.586,467.6H98.705a23.94,23.94,0,0,0,23.912-23.913v-184.2a23.94,23.94,0,0,0-23.912-23.913H83.586a39.074,39.074,0,0,0-39.03,39.03v3.935H38.583v-.727C38.583,157.933,136.116,60.4,256,60.4s217.417,97.533,217.417,217.416v.727h-5.973v-3.935a39.074,39.074,0,0,0-39.03-39.03H413.3a23.94,23.94,0,0,0-23.912,23.913v184.2A23.94,23.94,0,0,0,413.3,467.6h15.119a39.075,39.075,0,0,0,39.03-39.031v-3.934h17.018A27.571,27.571,0,0,0,512,397.1V306.081A27.578,27.578,0,0,0,489.417,279Zm-428.861-4.39a23.056,23.056,0,0,1,23.03-23.03H98.705a7.921,7.921,0,0,1,7.912,7.913v184.2a7.921,7.921,0,0,1-7.912,7.913H83.586a23.056,23.056,0,0,1-23.03-23.031Zm-16,134.027H27.538A11.552,11.552,0,0,1,16,397.1V306.081a11.551,11.551,0,0,1,11.538-11.538H44.556Zm406.888,19.934a23.056,23.056,0,0,1-23.03,23.031H413.3a7.921,7.921,0,0,1-7.912-7.913v-184.2a7.921,7.921,0,0,1,7.912-7.913h15.119a23.056,23.056,0,0,1,23.03,23.03ZM496,397.1a11.552,11.552,0,0,1-11.538,11.539H467.444V294.543h17.018A11.551,11.551,0,0,1,496,306.081Z"/></svg>
