<svg id="Layer_3" height="512" viewBox="0 0 48 48" width="512" xmlns="http://www.w3.org/2000/svg" data-name="Layer 3"><path d="m13 34.75h7.05a.75.75 0 1 0 0-1.5h-7.05a1.2511 1.2511 0 0 1 -1.25-1.25v-3.4991l4.35-4.3409 3.87 3.87a.75.75 0 0 0 1.0606 0l7.2-7.2 1.4594 1.46a.75.75 0 0 0 1.0606-1.06l-1.99-1.99a.75.75 0 0 0 -1.0606 0l-7.2 7.2-3.87-3.87a.75.75 0 0 0 -1.06-.0005l-3.82 3.8125v-12.382a1.2511 1.2511 0 0 1 1.25-1.25h18a1.2511 1.2511 0 0 1 1.25 1.25v5.49a.75.75 0 0 0 1.5 0v-5.49a2.7528 2.7528 0 0 0 -2.75-2.75h-18a2.7528 2.7528 0 0 0 -2.75 2.75v18a2.7528 2.7528 0 0 0 2.75 2.75z"/><path d="m32.9888 22.1748-10.4468 10.3945a.7506.7506 0 0 0 -.2212.5137l-.0708 2.8984a.76.76 0 0 0 .7681.7686l2.9135-.0708a.7512.7512 0 0 0 .5108-.2183l10.4476-10.394a2.757 2.757 0 1 0 -3.9008-3.8921zm3.2465 1.8452a1.4035 1.4035 0 0 1 -.4038.983l-10.2348 10.1835-1.8277.0445.044-1.8106 10.2334-10.1821a1.3935 1.3935 0 0 1 1.0042-.42 1.204 1.204 0 0 1 1.1847 1.2017z"/><path d="m16.25 18a2.75 2.75 0 1 0 2.75-2.75 2.7528 2.7528 0 0 0 -2.75 2.75zm4 0a1.25 1.25 0 1 1 -1.25-1.25 1.2511 1.2511 0 0 1 1.25 1.25z"/></svg>