<?xml version="1.0" encoding="utf-8"?>
<!-- Generator: Adobe Illustrator 26.0.0, SVG Export Plug-In . SVG Version: 6.00 Build 0)  -->
<svg version="1.1" id="Layer_1" xmlns="http://www.w3.org/2000/svg" xmlns:xlink="http://www.w3.org/1999/xlink" x="0px" y="0px"
	 viewBox="0 0 132.4 147.1" style="enable-background:new 0 0 132.4 147.1;" xml:space="preserve">
<style type="text/css">
	.st0{fill:none;stroke:#000000;stroke-width:3;stroke-linecap:round;stroke-linejoin:round;}
</style>
<path class="st0" d="M51.3,1.5h47.6c4.5,0,8.2,3.7,8.2,8.2v127.7c0,4.5-3.7,8.2-8.2,8.2c0,0,0,0,0,0H29.1c-4.5,0-8.2-3.6-8.2-8.2
	c0,0,0,0,0,0V9.7c0-4.5,3.7-8.2,8.2-8.2H51.3z"/>
<line class="st0" x1="20.9" y1="20.7" x2="107" y2="20.7"/>
<line class="st0" x1="52.2" y1="11.1" x2="67.3" y2="11.1"/>
<line class="st0" x1="74.7" y1="11.1" x2="75.3" y2="11.1"/>
<line class="st0" x1="20.9" y1="125.9" x2="107" y2="125.9"/>
<line class="st0" x1="56.9" y1="135.9" x2="70.8" y2="135.9"/>
<path class="st0" d="M44.2,88.7c-0.1,2.3-0.4,5,0.5,7.2c1,2.4,3.1,4,5.7,4.3c2,0,4-0.4,5.8-1.2l5.8-2.2c1.6-0.6,2.6-0.3,4.1,0.2
	l3.6,1.3l4.9,1.8c2.4,0.6,4.9-0.1,6.7-1.8c1.7-1.6,2.4-3.9,2.1-6.1l-0.2-10l6.3-8.2c1.3-1.5,1.9-3.6,1.6-5.5
	c-0.4-2.9-2.5-5.3-5.4-5.9l-9.9-3.2l-6.1-8.5c-2.6-3.6-5.9-3.2-5.9-3.2s-3.4-0.4-6.1,3.5c-1.8,2.5-3.4,5.4-5.5,7.7s-6.8,2.4-9.8,3.5
	s-6,3.6-6.1,6.9c0.1,2.1,0.9,4.1,2.4,5.7c1.4,1.5,2.8,3.2,4,4.9"/>
<line class="st0" x1="80.4" y1="53" x2="84.6" y2="48.1"/>
<line class="st0" x1="41.5" y1="48" x2="46.5" y2="52.2"/>
<line class="st0" x1="30.9" y1="87.4" x2="37" y2="85.2"/>
<line class="st0" x1="91.2" y1="85.1" x2="97.1" y2="87.9"/>
<line class="st0" x1="63.7" y1="102.5" x2="63.7" y2="109"/>
<path d="M11.2,108.6c0,0-4.4,0.5-5.6,6.7c-1.2-6.2-5.6-6.7-5.6-6.7c5.1-1.3,5.6-6.7,5.6-6.7S6.1,107.2,11.2,108.6z"/>
<path d="M123.9,24.9c0,0-4.4,0.5-5.6,6.7c-1.2-6.1-5.6-6.7-5.6-6.7c5.1-1.3,5.6-6.7,5.6-6.7S118.8,23.6,123.9,24.9z"/>
<path d="M132.5,41.9c0,0-4.4,0.5-5.6,6.7c-1.2-6.1-5.6-6.7-5.6-6.7c5.1-1.3,5.6-6.7,5.6-6.7S127.4,40.5,132.5,41.9z"/>
</svg>
