<?xml version="1.0" encoding="iso-8859-1"?>
<!-- Generator: Adobe Illustrator 19.0.0, SVG Export Plug-In . SVG Version: 6.00 Build 0)  -->
<svg version="1.1" id="Layer_1" xmlns="http://www.w3.org/2000/svg" xmlns:xlink="http://www.w3.org/1999/xlink" x="0px" y="0px"
	 viewBox="0 0 512 512" style="enable-background:new 0 0 512 512;" xml:space="preserve">
<g>
	<g>
		<path d="M405.333,0h-256c-23.531,0-42.667,19.135-42.667,42.667v134.25l-39.542,39.542c-2,2-3.125,4.708-3.125,7.542v32
			c0,2.833,1.125,5.542,3.125,7.542l18.208,18.208v33.833l-18.208,18.208c-2,2-3.125,4.708-3.125,7.542v128
			C64,492.865,83.135,512,106.667,512h298.667C428.865,512,448,492.865,448,469.333V42.667C448,19.135,428.865,0,405.333,0z
			 M426.667,469.333c0,11.76-9.573,21.333-21.333,21.333H106.667c-11.76,0-21.333-9.573-21.333-21.333V345.75l18.208-18.208
			c2-2,3.125-4.708,3.125-7.542v-42.667c0-2.833-1.125-5.542-3.125-7.542l-18.208-18.208v-23.167l39.542-39.542
			c2-2,3.125-4.708,3.125-7.542V42.667c0-11.76,9.573-21.333,21.333-21.333h21.333v117.333c0,5.896,4.771,10.667,10.667,10.667
			c5.896,0,10.667-4.771,10.667-10.667V21.333h42.667v117.333c0,5.896,4.771,10.667,10.667,10.667
			c5.896,0,10.667-4.771,10.667-10.667V21.333h42.667v117.333c0,5.896,4.771,10.667,10.667,10.667
			c5.896,0,10.667-4.771,10.667-10.667V21.333h42.667v117.333c0,5.896,4.771,10.667,10.667,10.667
			c5.896,0,10.667-4.771,10.667-10.667V21.333h21.333c11.76,0,21.333,9.573,21.333,21.333V469.333z"/>
	</g>
</g>
<g>
</g>
<g>
</g>
<g>
</g>
<g>
</g>
<g>
</g>
<g>
</g>
<g>
</g>
<g>
</g>
<g>
</g>
<g>
</g>
<g>
</g>
<g>
</g>
<g>
</g>
<g>
</g>
<g>
</g>
</svg>
