<svg xmlns="http://www.w3.org/2000/svg" width="17.203" height="22.937" viewBox="0 0 17.203 22.937">
  <g id="micro-sd" transform="translate(-63.999)">
    <g id="Group_246" data-name="Group 246" transform="translate(63.999)">
      <path id="Path_109" data-name="Path 109" d="M79.291,0H67.822A1.913,1.913,0,0,0,65.91,1.911V7.926L64.139,9.7a.477.477,0,0,0-.14.338v1.434a.478.478,0,0,0,.14.338l.816.816v1.516l-.816.816a.478.478,0,0,0-.14.338v5.734a1.913,1.913,0,0,0,1.912,1.911h13.38A1.913,1.913,0,0,0,81.2,21.026V1.911A1.913,1.913,0,0,0,79.291,0Zm.956,21.026a.957.957,0,0,1-.956.956H65.911a.957.957,0,0,1-.956-.956V15.489l.816-.816a.478.478,0,0,0,.14-.338V12.424a.478.478,0,0,0-.14-.338l-.816-.816V10.233l1.771-1.771a.478.478,0,0,0,.14-.338V1.911a.957.957,0,0,1,.956-.956h.956V6.212a.478.478,0,1,0,.956,0V.956h1.911V6.212a.478.478,0,1,0,.956,0V.956h1.911V6.212a.478.478,0,1,0,.956,0V.956h1.911V6.212a.478.478,0,0,0,.956,0V.956h.956a.957.957,0,0,1,.956.956V21.026Z" transform="translate(-63.999)" fill="#878787"/>
    </g>
  </g>
</svg>
