<svg id="Capa_1" enable-background="new 0 0 512 512" height="512" viewBox="0 0 512 512" width="512" xmlns="http://www.w3.org/2000/svg"><g><path d="m455.51 64.525h-12.277v-37.425c0-14.943-12.158-27.1-27.101-27.1h-329.706c-14.943 0-27.1 12.157-27.1 27.1v3.546h-22.422c-4.151 0-7.515 3.364-7.515 7.515v67.758c0 4.151 3.364 7.515 7.515 7.515h22.422v3.547c0 14.943 12.157 27.1 27.1 27.1h49.247v37.41c0 16.374 13.321 29.695 29.695 29.695 16.373 0 29.694-13.321 29.694-29.695v-37.41h116.571c4.151 0 7.515-3.364 7.515-7.515s-3.364-7.515-7.515-7.515h-116.572v-62.155c0-8.086 6.579-14.664 14.665-14.664s14.664 6.578 14.664 14.664v16.844c0 16.373 13.321 29.694 29.695 29.694 16.373 0 29.694-13.321 29.694-29.694v-68.71h132.353c6.656 0 12.071 5.415 12.071 12.07v89.881c0 6.656-5.415 12.071-12.071 12.071h-74.441c-4.151 0-7.515 3.364-7.515 7.515s3.364 7.515 7.515 7.515h74.441c14.943 0 27.101-12.156 27.101-27.1v-37.427h12.277c6.656 0 12.071 5.415 12.071 12.07v57.788c0 5.877-4.202 10.877-9.99 11.889l-182.585 31.959c-12.995 2.274-22.428 13.5-22.428 26.694v26.179h-21.315c-4.151 0-7.515 3.364-7.515 7.515v28.226h-1.631c-4.151 0-7.515 3.364-7.515 7.515v177.12c0 25.083 20.407 45.49 45.49 45.49s45.49-20.407 45.49-45.49v-59.044c0-4.151-3.364-7.515-7.515-7.515s-7.515 3.364-7.515 7.515v59.044c0 16.797-13.664 30.461-30.461 30.461-16.796 0-30.461-13.664-30.461-30.461v-169.606h60.922v80.503c0 4.151 3.364 7.515 7.515 7.515s7.515-3.364 7.515-7.515v-88.018c0-4.151-3.364-7.515-7.515-7.515h-1.632v-28.226c0-4.151-3.364-7.515-7.515-7.515h-21.314v-26.179c0-5.877 4.201-10.877 9.989-11.889l182.585-31.959c12.996-2.274 22.429-13.5 22.429-26.694v-57.787c.002-14.943-12.156-27.1-27.099-27.1zm-411.091 33.879v-52.729h14.907v52.729zm224.331-14.664c0 8.086-6.578 14.664-14.664 14.664s-14.666-6.578-14.666-14.664v-16.844c0-16.373-13.321-29.694-29.694-29.694-16.374 0-29.695 13.321-29.695 29.694v114.594c0 8.086-6.579 14.665-14.665 14.665s-14.664-6.579-14.664-14.665v-94.42c0-4.151-3.364-7.515-7.515-7.515s-7.515 3.364-7.515 7.515v41.981h-49.246c-6.655 0-12.07-5.415-12.07-12.071v-89.88c0-6.656 5.415-12.07 12.07-12.07h49.247v41.981c0 4.151 3.364 7.515 7.515 7.515s7.515-3.364 7.515-7.515v-41.982h118.047zm12.657 198.135h-42.629v-20.711h42.629z"/></g></svg>