<?xml version="1.0" encoding="UTF-8"?>
<svg xmlns="http://www.w3.org/2000/svg" viewBox="0 0 128 128" width="512" height="512"><g id="Outline"><g id="Outline-2" data-name="Outline"><path d="M92,15H55a1.5,1.5,0,0,0,0,3H92a1.5,1.5,0,0,0,0-3Z"/><path d="M92,34H55a1.5,1.5,0,0,0,0,3H92a1.5,1.5,0,0,0,0-3Z"/><path d="M92,53H55a1.5,1.5,0,0,0,0,3H92a1.5,1.5,0,0,0,0-3Z"/><path d="M40,30.5a5,5,0,1,0,5,5A5.006,5.006,0,0,0,40,30.5Zm0,7a2,2,0,1,1,2-2A2,2,0,0,1,40,37.5Z"/><path d="M40,49.5a5,5,0,1,0,5,5A5.006,5.006,0,0,0,40,49.5Zm0,7a2,2,0,1,1,2-2A2,2,0,0,1,40,56.5Z"/><path d="M97.5,0H45.576a7.457,7.457,0,0,0-5.227,2.122L25.272,16.778A7.542,7.542,0,0,0,23,22.156V65H15.788a7.486,7.486,0,0,0-5.732,2.663L1.671,77.6A4.5,4.5,0,0,0,5.11,85H11.5v32.5A10.512,10.512,0,0,0,22,128h84a10.512,10.512,0,0,0,10.5-10.5V85h6.39a4.5,4.5,0,0,0,3.439-7.4l-8.385-9.935A7.486,7.486,0,0,0,112.212,65H105V7.5A7.508,7.508,0,0,0,97.5,0ZM27.363,18.929,42.44,4.273A4.514,4.514,0,0,1,43,3.824V15.5A4.505,4.505,0,0,1,38.5,20H26.577A4.507,4.507,0,0,1,27.363,18.929ZM26,23H38.5A7.508,7.508,0,0,0,46,15.5V3H97.5A4.505,4.505,0,0,1,102,7.5V65H26ZM5.11,82a1.5,1.5,0,0,1-1.146-2.468L12.349,69.6A4.492,4.492,0,0,1,15.788,68H76.771L67.2,79.337A7.485,7.485,0,0,1,61.472,82ZM78.5,125H22a7.508,7.508,0,0,1-7.5-7.5V85H61.472A10.479,10.479,0,0,0,69.5,81.272l9-10.669Zm35-7.5A7.508,7.508,0,0,1,106,125H81.5V70.6l9,10.669A10.479,10.479,0,0,0,98.528,85H113.5ZM112.212,68a4.492,4.492,0,0,1,3.439,1.6l8.385,9.934A1.5,1.5,0,0,1,122.89,82H98.528A7.485,7.485,0,0,1,92.8,79.337L83.229,68Z"/><path d="M71.5,115.5h-9a1.5,1.5,0,0,0,0,3h9a1.5,1.5,0,0,0,0-3Z"/><path d="M61,109a1.5,1.5,0,0,0,1.5,1.5h9a1.5,1.5,0,0,0,0-3h-9A1.5,1.5,0,0,0,61,109Z"/><path d="M36.5,108h-13a3,3,0,0,0-3,3v5a3,3,0,0,0,3,3h13a3,3,0,0,0,3-3v-5A3,3,0,0,0,36.5,108Zm-13,8v-5h13l0,5Z"/></g></g></svg>
