<svg height="512" viewBox="0 0 64 64" width="512" xmlns="http://www.w3.org/2000/svg"><g id="_x32_9_Change_Picture"><g><path d="m36.604 30.03c2.066-1.65 3.396-4.185 3.396-7.03 0-4.963-4.037-9-9-9s-9 4.037-9 9c0 2.845 1.33 5.38 3.396 7.03-4.681.314-8.396 4.211-8.396 8.97v2c0 2.757 2.243 5 5 5h18c2.757 0 5-2.243 5-5v-2c0-4.759-3.715-8.656-8.396-8.97zm-12.604-7.03c0-3.859 3.141-7 7-7s7 3.141 7 7-3.141 7-7 7-7-3.141-7-7zm19 18c0 1.654-1.346 3-3 3h-18c-1.654 0-3-1.346-3-3v-2c0-3.859 3.141-7 7-7h10c3.859 0 7 3.141 7 7z"/><path d="m60 47h-1.58l-.047-.235c-.053-.265-.151-.515-.268-.756 2.542-4.583 3.895-9.755 3.895-15.009 0-17.094-13.906-31-31-31s-31 13.906-31 31 13.906 31 31 31c3.793 0 7.486-.679 11-2.017v.017c0 2.206 1.794 4 4 4h14c2.206 0 4-1.794 4-4v-9c0-2.206-1.794-4-4-4zm-29 13c-15.99 0-29-13.01-29-29s13.01-29 29-29 29 13.01 29 29c0 4.695-1.157 9.318-3.332 13.46-.506-.291-1.08-.46-1.668-.46h-1.494c2.289-3.945 3.494-8.401 3.494-13 0-14.337-11.663-26-26-26s-26 11.663-26 26 11.663 26 26 26c3.8 0 7.57-.843 11-2.447v3.272c-3.498 1.438-7.193 2.175-11 2.175zm11-9v1.313c-3.388 1.752-7.174 2.687-11 2.687-13.233 0-24-10.767-24-24s10.767-24 24-24 24 10.767 24 24c0 4.641-1.338 9.12-3.851 13h-.149c-1.581 0-3.063 1.215-3.373 2.765l-.047.235h-1.58c-2.206 0-4 1.794-4 4zm20 9c0 1.103-.897 2-2 2h-14c-1.103 0-2-.897-2-2v-9c0-1.103.897-2 2-2h2.399c.477 0 .887-.336.98-.804l.208-1.039c.122-.605.795-1.157 1.413-1.157h4c.618 0 1.291.552 1.412 1.157l.208 1.039c.094.468.504.804.981.804h2.399c1.103 0 2 .897 2 2z"/><path d="m53 51c-2.206 0-4 1.794-4 4s1.794 4 4 4 4-1.794 4-4-1.794-4-4-4zm0 6c-1.103 0-2-.897-2-2s.897-2 2-2 2 .897 2 2-.897 2-2 2z"/></g></g></svg>