<?xml version="1.0" encoding="UTF-8"?>
<svg xmlns="http://www.w3.org/2000/svg" id="Line_Expand" data-name="Line Expand" viewBox="0 0 64 64" width="512" height="512"><path d="M33,7a1,1,0,0,1,1,1,1,1,0,0,0,2,0,3,3,0,1,0-3,3,1,1,0,1,1-1,1,1,1,0,0,0-2,0,3,3,0,1,0,3-3,1,1,0,0,1,0-2Z"/><path d="M43,7a1,1,0,0,0,0-2H39a1,1,0,0,0-1,1v8a1,1,0,0,0,1,1h4a1,1,0,0,0,0-2H40V11h3a1,1,0,0,0,0-2H40V7Z"/><path d="M51,13H48V6a1,1,0,0,0-2,0v8a1,1,0,0,0,1,1h4a1,1,0,0,0,0-2Z"/><path d="M59,13H56V6a1,1,0,0,0-2,0v8a1,1,0,0,0,1,1h4a1,1,0,0,0,0-2Z"/><path d="M60,1H30a4,4,0,0,0-4,4V28a1,1,0,0,0,1.857.515L33.566,19H60a4,4,0,0,0,4-4V5A4,4,0,0,0,60,1Zm2,14a2,2,0,0,1-2,2H33a1,1,0,0,0-.858.486L28,24.39V5a2,2,0,0,1,2-2H60a2,2,0,0,1,2,2Z"/><path d="M35.578,44.269a3,3,0,0,0-4.1-1.1l-3.526,2.035a2,2,0,0,1-2.267-.184,32.258,32.258,0,0,1-7.636-9.11A32.629,32.629,0,0,1,13.98,24.745a2,2,0,0,1,.974-2.055l3.526-2.036a3,3,0,0,0,1.1-4.1l-6-10.392a3,3,0,0,0-4.1-1.1L4,8.228a7.963,7.963,0,0,0-4,7.05c.111,5.381,1.681,14.284,8.523,26.134S22.291,59.072,26.9,61.862A7.963,7.963,0,0,0,35,61.921l5.477-3.162a3,3,0,0,0,1.1-4.1ZM10.48,6.8a1,1,0,0,1,1.366.366l6,10.392a1,1,0,0,1-.366,1.366l-1.732,1L8.748,7.8ZM34,60.189a5.964,5.964,0,0,1-6.071-.038c-4.4-2.668-11.046-8.258-17.675-19.739S2.108,20.384,2,15.237A5.964,5.964,0,0,1,5,9.96L7.016,8.8l7,12.124-.062.036A3.992,3.992,0,0,0,12,25.046a34.262,34.262,0,0,0,4.317,11.866,34.31,34.31,0,0,0,8.118,9.673,4,4,0,0,0,4.517.353l.062-.035,7,12.124Zm5.477-3.162-1.732,1-7-12.124,1.732-1a1,1,0,0,1,1.366.366l6,10.392A1,1,0,0,1,39.48,57.027Z"/></svg>
