<svg id="Outline" enable-background="new 0 0 512 512" height="512" viewBox="0 0 512 512" width="512" xmlns="http://www.w3.org/2000/svg"><path d="m320 16h-192c-22.081.025-39.975 17.919-40 40v400c.025 22.081 17.919 39.975 40 40h192c22.081-.025 39.975-17.919 40-40v-96h56c4.418 0 8-3.582 8-8v-160c.001-2.43-1.103-4.728-3-6.247l-40-32c-1.419-1.135-3.183-1.754-5-1.753h-16v-96c-.025-22.081-17.919-39.975-40-40zm-192 16h192c13.248.015 23.985 10.752 24 24v24h-240v-24c.015-13.248 10.752-23.985 24-24zm192 448h-192c-13.248-.015-23.985-10.752-24-24v-40h240v40c-.015 13.248-10.752 23.985-24 24zm24-80h-240v-304h240v56h-16c-1.817-.001-3.581.618-5 1.753l-40 32c-1.897 1.519-3.001 3.817-3 6.247v160c0 4.418 3.582 8 8 8h56zm64-204.155v148.155h-112v-148.155l34.807-27.845h42.386z"/><circle cx="176" cy="56" r="8"/><path d="m216 64h56c4.418 0 8-3.582 8-8s-3.582-8-8-8h-56c-4.418 0-8 3.582-8 8s3.582 8 8 8z"/><path d="m328 256c.015 13.248 10.752 23.985 24 24 4.418 0 8 3.582 8 8s-3.582 8-8 8-8-3.582-8-8-3.582-8-8-8-8 3.582-8 8c.013 10.166 6.419 19.224 16 22.624v9.376c0 4.418 3.582 8 8 8s8-3.582 8-8v-9.376c12.495-4.424 19.038-18.139 14.614-30.634-3.392-9.58-12.451-15.986-22.614-15.99-4.418 0-8-3.582-8-8s3.582-8 8-8 8 3.582 8 8 3.582 8 8 8 8-3.582 8-8c-.013-10.166-6.419-19.224-16-22.624v-9.376c0-4.418-3.582-8-8-8s-8 3.582-8 8v9.376c-9.581 3.4-15.987 12.458-16 22.624z"/><circle cx="352" cy="192" r="8"/><path d="m152 256c2.122.003 4.158-.84 5.657-2.343l48-48c3.124-3.124 3.124-8.19 0-11.314s-8.19-3.124-11.314 0l-48 48c-3.124 3.124-3.124 8.189 0 11.314 1.5 1.5 3.535 2.343 5.657 2.343z"/><path d="m250.343 250.343-48 48c-3.124 3.124-3.124 8.19 0 11.314s8.19 3.124 11.314 0l48-48c3.124-3.124 3.124-8.19 0-11.314s-8.19-3.124-11.314 0z"/><path d="m250.343 194.343-112 112c-3.124 3.124-3.124 8.19 0 11.314s8.19 3.124 11.314 0l112-112c3.124-3.124 3.124-8.19 0-11.314s-8.19-3.124-11.314 0z"/></svg>