<svg height="512" viewBox="0 0 48 48" width="512" xmlns="http://www.w3.org/2000/svg"><g id="Verification"><path d="m28.79 17-7.79 7.77-1.79-1.77a3.18 3.18 0 0 0 -4.42 0 3.13 3.13 0 0 0 0 4.42c3.44 3.44 4.12 4.55 6.21 4.55s2.11-.46 12.21-10.55a3.13 3.13 0 0 0 -4.42-4.42zm3 3-9.38 9.38a2 2 0 0 1 -2.82 0c-3.45-3.44-3.71-3.51-3.71-4.17a1.12 1.12 0 0 1 1.91-.79l2.5 2.5a1 1 0 0 0 1.42 0l8.5-8.5a1.12 1.12 0 0 1 1.58 1.58z"/><path d="m24 8a16 16 0 1 0 16 16 16 16 0 0 0 -16-16zm0 30a14 14 0 1 1 14-14 14 14 0 0 1 -14 14z"/><path d="m47.74 23.33-4.14-4.58 1.3-6a1 1 0 0 0 -.67-1.17l-5.88-1.93-1.89-5.88a1 1 0 0 0 -1.17-.67l-6 1.3-4.62-4.14a1 1 0 0 0 -1.34 0l-4.58 4.14-6-1.3a1 1 0 0 0 -1.17.67l-1.93 5.88-5.88 1.89a1 1 0 0 0 -.67 1.17l1.3 6-4.14 4.62a1 1 0 0 0 0 1.34l4.14 4.58-1.3 6a1 1 0 0 0 .67 1.17l5.88 1.89 1.89 5.88a1 1 0 0 0 1.17.67l6-1.3 4.58 4.14a1 1 0 0 0 1.34 0l4.58-4.14 6 1.3a1 1 0 0 0 1.17-.67l1.89-5.88 5.88-1.89a1 1 0 0 0 .67-1.17l-1.3-6 4.14-4.58a1 1 0 0 0 .08-1.34zm-6 5c-.46.52-.33.42 1 6.54-5.75 1.85-5.93 1.74-6.15 2.42l-1.77 5.5-5.66-1.21c-.78-.16-1 .33-5.17 4.11-4.65-4.2-4.44-4.13-5-4.13-.16 0 .27-.08-5.87 1.23-1.85-5.75-1.73-5.93-2.42-6.15l-5.46-1.81 1.22-5.66c.15-.68.07-.55-4.11-5.17 4.22-4.68 4.26-4.5 4.11-5.17l-1.22-5.66 5.51-1.77c.76-.24.69-.78 2.42-6.15 6.16 1.32 6 1.44 6.54 1l4.29-3.9 4.29 3.88c.52.46.42.33 6.54-1 1.85 5.75 1.73 5.93 2.42 6.15l5.5 1.77-1.21 5.66c-.15.68-.08.53 4.11 5.17z"/></g></svg>