<svg xmlns="http://www.w3.org/2000/svg" width="26.846" height="30.167" viewBox="0 0 26.846 30.167">
  <g id="warranty" transform="translate(-428.836 -457.543)">
    <path id="Path_115" data-name="Path 115" d="M468.5,505.677l3.427,3.406,5.583-5.583" transform="translate(-30.65 -35.597)" fill="none" stroke="#878787" stroke-linecap="round" stroke-linejoin="round" stroke-miterlimit="10" stroke-width="1.2"/>
    <circle id="Ellipse_11" data-name="Ellipse 11" cx="7.372" cy="7.372" r="7.372" transform="translate(433.912 476.795) rotate(-80.782)" fill="none" stroke="#878787" stroke-linecap="round" stroke-linejoin="round" stroke-miterlimit="10" stroke-width="1.2"/>
    <g id="Group_264" data-name="Group 264" transform="translate(446.213 478.896)">
      <path id="Path_116" data-name="Path 116" d="M526.346,554.5l2.694,5-4.441-1.25" transform="translate(-520.871 -554.5)" fill="none" stroke="#878787" stroke-linecap="round" stroke-linejoin="round" stroke-miterlimit="10" stroke-width="1.2"/>
      <path id="Path_117" data-name="Path 117" d="M507.3,572.272l2.414,4.247,1.293-4.419" transform="translate(-507.3 -568.306)" fill="none" stroke="#878787" stroke-linecap="round" stroke-linejoin="round" stroke-miterlimit="10" stroke-width="1.2"/>
    </g>
    <g id="Group_265" data-name="Group 265" transform="translate(430.111 478.896)">
      <path id="Path_118" data-name="Path 118" d="M435.294,554.5l-2.695,5,4.441-1.25" transform="translate(-432.6 -554.5)" fill="none" stroke="#878787" stroke-linecap="round" stroke-linejoin="round" stroke-miterlimit="10" stroke-width="1.2"/>
      <path id="Path_119" data-name="Path 119" d="M457.029,572.272l-2.436,4.247L453.3,572.1" transform="translate(-448.838 -568.306)" fill="none" stroke="#878787" stroke-linecap="round" stroke-linejoin="round" stroke-miterlimit="10" stroke-width="1.2"/>
    </g>
    <g id="Group_266" data-name="Group 266" transform="translate(429.427 458.121)">
      <path id="Path_120" data-name="Path 120" d="M488.365,459.237a2.815,2.815,0,0,0,1.25-.388,3.982,3.982,0,0,1,2.738-.647,3.132,3.132,0,0,1,1.466,1.4s.668,1.207.754,1.315a2.239,2.239,0,0,0,.366.431,2.723,2.723,0,0,0,1.293.453,6.055,6.055,0,0,1,2.156.668,1.941,1.941,0,0,1,.819,1.574,10.651,10.651,0,0,1-.172,2,2.034,2.034,0,0,0,.345,1.509,18.25,18.25,0,0,1,1.444,1.681,2.043,2.043,0,0,1,.366,1.854c-.259.97-1.9,2.285-2.091,2.867a5.585,5.585,0,0,0,.022,1.983c.065.625.388,2.156-1.056,2.824a3.5,3.5,0,0,1-1.035.345l-.97.194a3.047,3.047,0,0,0-1.229.5,17.64,17.64,0,0,0-1.164,1.854,3.183,3.183,0,0,1-1.1,1.121,2.734,2.734,0,0,1-2.242-.194,4.446,4.446,0,0,0-2.026-.733" transform="translate(-475.609 -458.121)" fill="none" stroke="#878787" stroke-linecap="round" stroke-linejoin="round" stroke-miterlimit="10" stroke-width="1.2"/>
      <path id="Path_121" data-name="Path 121" d="M442.355,459.237a2.815,2.815,0,0,1-1.25-.388,3.982,3.982,0,0,0-2.738-.647,3.227,3.227,0,0,0-1.487,1.4s-.668,1.207-.755,1.315a2.239,2.239,0,0,1-.366.431,2.723,2.723,0,0,1-1.293.453,6.055,6.055,0,0,0-2.156.668,1.857,1.857,0,0,0-.819,1.574,10.646,10.646,0,0,0,.172,2,2.034,2.034,0,0,1-.345,1.509,18.24,18.24,0,0,0-1.444,1.681,2.108,2.108,0,0,0-.367,1.854c.259.97,1.9,2.285,2.091,2.867a5.583,5.583,0,0,1-.022,1.983c-.065.625-.388,2.156,1.056,2.824a3.5,3.5,0,0,0,1.035.345l.97.194a3.048,3.048,0,0,1,1.229.5,17.66,17.66,0,0,1,1.164,1.854,3.182,3.182,0,0,0,1.1,1.121,2.734,2.734,0,0,0,2.242-.194,4.446,4.446,0,0,1,2.026-.733" transform="translate(-429.427 -458.121)" fill="none" stroke="#878787" stroke-linecap="round" stroke-linejoin="round" stroke-miterlimit="10" stroke-width="1.2"/>
    </g>
  </g>
</svg>
