<?xml version="1.0" encoding="utf-8"?>
<!-- Generator: Adobe Illustrator 26.0.0, SVG Export Plug-In . SVG Version: 6.00 Build 0)  -->
<svg version="1.1" id="Layer_1" xmlns="http://www.w3.org/2000/svg" xmlns:xlink="http://www.w3.org/1999/xlink" x="0px" y="0px"
	 viewBox="0 0 1000 1000" style="enable-background:new 0 0 1000 1000;" xml:space="preserve">
<style type="text/css">
	.st0{fill:none;stroke:#000000;stroke-width:3;stroke-linecap:round;stroke-linejoin:round;stroke-miterlimit:10;}
</style>
<g>
	<polyline class="st0" points="468.5,513.6 484.4,529.4 510.3,503.5 	"/>
	
		<ellipse transform="matrix(0.1602 -0.9871 0.9871 0.1602 -98.7661 916.8143)" class="st0" cx="489.4" cy="516.5" rx="34.2" ry="34.2"/>
	<g>
		<polyline class="st0" points="532.7,554.5 545.2,577.7 524.6,571.9 		"/>
		<polyline class="st0" points="507.3,572.9 518.5,592.6 524.5,572.1 		"/>
	</g>
	<g>
		<polyline class="st0" points="445.1,554.5 432.6,577.7 453.2,571.9 		"/>
		<polyline class="st0" points="470.6,572.9 459.3,592.6 453.3,572.1 		"/>
	</g>
	<g>
		<path class="st0" d="M488.6,463.3c0,0,1.5,0.2,5.8-1.8c4.3-2,8.6-4.3,12.7-3s6.8,6.5,6.8,6.5s3.1,5.6,3.5,6.1c0,0,1,1.5,1.7,2
			s1.5,1.2,6,2.1s7.6,1.5,10,3.1c2.3,1.7,3.6,3.9,3.8,7.3s-0.7,8.9-0.8,9.3c0,0.4-0.7,4.4,1.6,7c2.3,2.6,5.8,6.2,6.7,7.8
			c1,1.6,2.9,4,1.7,8.6c-1.2,4.5-8.8,10.6-9.7,13.3c-0.9,2.7-0.1,6.3,0.1,9.2c0.3,2.9,1.8,10-4.9,13.1c-2.9,1.4-4.8,1.6-4.8,1.6
			s-4,0.8-4.5,0.9s-4.6,1-5.7,2.3s-3.4,5.1-5.4,8.6c-2,3.5-5.1,5.2-5.1,5.2s-5,2.1-10.4-0.9s-8.5-3.5-9.4-3.4"/>
		<path class="st0" d="M489.4,463.3c0,0-1.5,0.2-5.8-1.8c-4.3-2-8.6-4.3-12.7-3s-6.9,6.5-6.9,6.5s-3.1,5.6-3.5,6.1c0,0-1,1.5-1.7,2
			s-1.5,1.2-6,2.1c-4.5,0.9-7.6,1.5-10,3.1s-3.6,3.9-3.8,7.3c-0.2,3.4,0.7,8.9,0.8,9.3c0,0.4,0.7,4.4-1.6,7
			c-2.3,2.6-5.8,6.2-6.7,7.8s-2.9,4-1.7,8.6c1.2,4.5,8.8,10.6,9.7,13.3c0.9,2.7,0.1,6.3-0.1,9.2c-0.3,2.9-1.8,10,4.9,13.1
			c2.9,1.4,4.8,1.6,4.8,1.6s4,0.8,4.5,0.9s4.6,1,5.7,2.3s3.4,5.1,5.4,8.6c2,3.5,5.1,5.2,5.1,5.2s5,2.1,10.4-0.9s8.5-3.5,9.4-3.4"/>
	</g>
</g>
</svg>
